<?xml version="1.0" encoding="utf-8"?>
<!-- Generator: Adobe Illustrator 22.0.1, SVG Export Plug-In . SVG Version: 6.00 Build 0)  -->
<svg version="1.1" xmlns="http://www.w3.org/2000/svg" xmlns:xlink="http://www.w3.org/1999/xlink" x="0px" y="0px"
	 viewBox="0 0 600 157.9" style="enable-background:new 0 0 600 157.9;" xml:space="preserve">
<style type="text/css">
	.st0{fill:#006938;}
</style>
<g id="Layer_1">
</g>
<g id="uos-logo">
	<g>
		<g>
			<path class="st0" d="M5.1,94.4c0-9,8.5-15.8,21.4-15.8c6.3,0,12.9,1.7,16.7,5.1c1.6,1.4,2.2,2.9,2.2,5.1c0,3-1.7,5.9-4.2,5.9
				c-1.6,0-2.9-1.3-4.5-2.7c-3.7-3.4-7.9-5-11.5-5c-4.6,0-8,2.2-8,5.9c0,12.5,30.7,11.3,30.7,31.9c0,5.2-1.9,9.7-5.3,12.9
				c-4.2,4.1-11,6-17.8,6c-6.7,0-13.4-1.8-18.1-5.4c-1.9-1.5-2.4-3.1-2.4-5.2c0-2.9,1.7-5.9,4.3-5.9c3.7,0,6.6,8.1,17,8.1
				c5.4,0,10.1-2.8,10.1-9.1C35.8,112.3,5.1,114.2,5.1,94.4"/>
			<path class="st0" d="M104.1,79.2c1.3,0,1.7,0.3,1.7,1.6v5.1c0,1.1-0.4,1.6-1.7,1.6h-7.8c-5.1,0-8.2-0.1-10-0.3v46.5
				c0,6.8,3.6,5.8,3.6,7.9c0,1.4-1.6,1.7-7.3,1.7h-4.6c-5.8,0-7.3-0.3-7.3-1.7c0-2.1,3.6-1.1,3.6-7.9V87.1c-1.9,0.2-4.9,0.3-10,0.3
				h-7.8c-1.3,0-1.7-0.4-1.7-1.6v-5.1c0-1.3,0.4-1.6,1.7-1.6H104.1z"/>
			<path class="st0" d="M130.8,133.6c0,6.8,3.6,5.8,3.6,7.9c0,1.4-1.6,1.7-7.3,1.7h-4.6c-5.8,0-7.3-0.3-7.3-1.7
				c0-2.1,3.6-1.1,3.6-7.9V88.7c0-6.8-3.6-5.8-3.6-7.9c0-1.4,1.6-1.7,7.3-1.7h4.6c5.7,0,7.3,0.3,7.3,1.7c0,2.1-3.6,1.1-3.6,7.9
				V133.6z"/>
			<path class="st0" d="M166.3,86.7h-3.5v24.5c14.4,0,19-4.7,19-12.6C181.9,89.2,175.5,86.7,166.3,86.7 M181.4,116l13.9,18.2
				c2,2.7,3.7,4.2,6.6,6c0.6,0.4,0.8,0.7,0.8,1.3c0,1.5-3.2,1.6-8.6,1.6c-6,0-7.2-0.8-10-4.6l-15.2-20h-6.1v15
				c0,6.8,3.6,5.8,3.6,7.9c0,1.4-1.6,1.7-7.3,1.7h-4.6c-5.8,0-7.3-0.3-7.3-1.7c0-2.1,3.6-1.1,3.6-7.9V88.7c0-6.8-3.6-5.8-3.6-7.9
				c0-1.4,1.6-1.7,7.3-1.7h8.4c9.7,0,16.4,0.9,20.7,2.8c6.1,2.7,10.9,7.5,10.9,16.3C194.4,108,189.6,112.9,181.4,116"/>
			<path class="st0" d="M251.5,134.9c1.3,0,1.7,0.3,1.7,1.6v5.1c0,1.1-0.4,1.6-1.7,1.6h-32.6c-5.8,0-7.3-0.3-7.3-1.7
				c0-2.1,3.6-1.1,3.6-7.9V88.7c0-6.8-3.6-5.8-3.6-7.9c0-1.4,1.6-1.7,7.3-1.7h4.6c5.8,0,7.3,0.3,7.3,1.7c0,2.1-3.6,1.1-3.6,7.9v46.5
				c1.9-0.2,4.9-0.3,10-0.3H251.5z"/>
			<path class="st0" d="M279.5,133.6c0,6.8,3.6,5.8,3.6,7.9c0,1.4-1.6,1.7-7.3,1.7h-4.6c-5.8,0-7.3-0.3-7.3-1.7
				c0-2.1,3.6-1.1,3.6-7.9V88.7c0-6.8-3.6-5.8-3.6-7.9c0-1.4,1.6-1.7,7.3-1.7h4.6c5.7,0,7.3,0.3,7.3,1.7c0,2.1-3.6,1.1-3.6,7.9
				V133.6z"/>
			<path class="st0" d="M342.6,121.9V88.7c0-6.8-3.6-5.8-3.6-7.9c0-1.4,1.6-1.7,7.3-1.7h1.8c5.8,0,7.3,0.3,7.3,1.7
				c0,2.1-3.6,1.1-3.6,7.9v52.5c0,1.4-0.6,1.9-3.7,1.9h-0.6c-2.7,0-3.1-0.3-4.3-1.8l-30.1-38c-1.5-1.9-3.2-4.2-4.3-5.6h-0.2v35.9
				c0,6.8,3.6,5.8,3.6,7.9c0,1.4-1.6,1.7-7.3,1.7h-1.8c-5.8,0-7.3-0.3-7.3-1.7c0-2.1,3.6-1.1,3.6-7.9V88.7c0-6.8-3.6-5.8-3.6-7.9
				c0-1.4,1.6-1.7,7.3-1.7h0.6c5,0,5.6,0.9,8.7,4.7l25.6,32.4c1.5,1.9,3.2,4.2,4.3,5.6H342.6z"/>
			<path class="st0" d="M397.4,87.2c-9,0-17.6,7.4-17.6,23.3c0,17.5,7.5,24.9,19.9,24.9c3.2,0,6.3-0.6,9.1-1.8v-12.1
				c0-3.8-0.7-4.9-2.5-6.3c-0.8-0.6-1-0.9-1-1.6c0-1.5,2.1-1.8,7.5-1.8h1.7c5.5,0,6.1,0.3,6.1,2.6v20.1c0,2.1-0.6,3.4-2.7,4.6
				c-5.3,2.9-12.3,4.5-19.4,4.5c-20.6,0-31.1-12.3-31.1-32.4c0-19.5,11.1-32.8,30.3-32.8c8,0,14.7,2.1,18.3,5.2
				c1.7,1.5,2.4,3.1,2.4,5.5c0,3.2-1.8,6-4.5,6C409.1,95.3,407.4,87.2,397.4,87.2"/>
		</g>
		<path class="st0" d="M593.9,87.2L593.9,87.2v-6.8V6.8H466.5v73.6v6.8v0c0,0,0,0.6,0,1.6c0.1,1.1,0.2,2.9,0.7,5.1
			c0.6,2.7,1.7,6.1,3.7,10c0.4,0.7,0.8,1.5,1.2,2.3c1.7,3,3.8,6.3,6.6,9.7c0.4,0.5,0.8,1,1.3,1.6c2.1,2.5,4.5,5,7.3,7.7
			c0.8,0.7,1.6,1.5,2.4,2.2c9.3,8.3,22.3,17.2,40.5,26.1c18.2-8.8,31.2-17.8,40.5-26.1c0.8-0.7,1.6-1.5,2.4-2.2
			c2.8-2.6,5.2-5.2,7.3-7.7c0.4-0.5,0.9-1,1.3-1.6c2.8-3.5,4.9-6.7,6.6-9.7c0.4-0.8,0.8-1.5,1.2-2.3c2-4,3.1-7.4,3.7-10.1
			c0.5-2.2,0.7-3.9,0.7-5.1C594,87.7,593.9,87.2,593.9,87.2z M494.4,127.3c-4.6-3.8-8.6-7.8-11.9-11.8c1.4-1,2.8-1.7,5.3-1.7
			c3.2,0,4.7,1.2,6.4,2.6c1.8,1.4,3.8,3.1,7.7,3.1c3.9,0,5.9-1.6,7.7-3.1c1.4-1.2,2.7-2.2,4.9-2.5v11.3c-2.9,0.4-4.6,1.7-6.1,3
			c-1.7,1.4-3.3,2.6-6.4,2.6c-3.2,0-4.7-1.2-6.4-2.6C495.1,127.9,494.8,127.6,494.4,127.3z M530.2,150c-11-5.4-20.6-11.2-28.8-17.2
			c0.2,0,0.4,0,0.5,0c3.9,0,5.9-1.6,7.7-3.1c1.4-1.2,2.7-2.2,4.9-2.5v5.6l0.5,0.3c2.7,1.7,5.4,1.5,8,1.2c2.3-0.2,4.6-0.5,6.7,0.9
			l0.5,0.3l0.5-0.3c2.2-1.4,4.4-1.1,6.7-0.9c2.6,0.3,5.3,0.6,8-1.2l0.5-0.3v-5.6c2.2,0.3,3.4,1.4,4.9,2.5c1.8,1.4,3.8,3.1,7.7,3.1
			c0.2,0,0.4,0,0.5,0C550.8,138.8,541.2,144.6,530.2,150z M516.5,131.7v-4.2v-0.3v-2v-11.3v-2v0c0,0,0,0,0,0
			c1.1,0.4,2.2,0.6,3.3,0.6c1.1,0,2.1-0.1,3.2-0.2c2.2-0.2,4.2-0.4,6.2,0.6v4.7v2v8v3.3v1.9c-1-0.4-2-0.6-3-0.6c-0.2,0-0.4,0-0.5,0
			c-1,0-2,0.1-2.9,0.2C520.6,132.5,518.5,132.7,516.5,131.7z M531.2,132.7v-1.9v-3.3v-8v-2v-4.7c2-1.1,4.1-0.8,6.2-0.6
			c1,0.1,2.1,0.2,3.2,0.2c1.1,0,2.1-0.2,3.2-0.6c0,0,0,0,0,0v0v2v11.3v2v0.3v4.2c-2,1.1-4.1,0.8-6.2,0.6c-1.1-0.1-2.3-0.2-3.5-0.2
			C533.2,132.1,532.2,132.3,531.2,132.7z M566,127.3c-0.4,0.3-0.7,0.5-1,0.8c-1.7,1.4-3.3,2.6-6.4,2.6c-3.2,0-4.7-1.2-6.4-2.6
			c-1.5-1.2-3.2-2.6-6.1-3v-11.3c2.2,0.3,3.4,1.4,4.9,2.5c1.8,1.4,3.8,3.1,7.7,3.1c3.9,0,5.9-1.6,7.7-3.1c1.7-1.4,3.3-2.6,6.4-2.6
			c2.5,0,3.9,0.7,5.3,1.7C574.6,119.5,570.6,123.5,566,127.3z M584.2,107.1c-1.4,2.3-3.1,4.6-4.9,6.9c-1.6-1.2-3.5-2.2-6.6-2.2
			c-3.9,0-5.9,1.6-7.7,3.1c-1.7,1.4-3.3,2.6-6.4,2.6c-3.2,0-4.7-1.2-6.4-2.6c-1.5-1.2-3.2-2.6-6.1-3v-3.6l-1,0.6l-0.6,0.4
			c-2.2,1.4-4.4,1.1-6.7,0.9c-2.4-0.3-4.9-0.5-7.5,0.9c-2.6-1.4-5-1.1-7.5-0.9c-2.3,0.2-4.6,0.5-6.7-0.9l-0.6-0.4l-1-0.6v3.6
			c-2.9,0.4-4.6,1.7-6.1,3c-1.7,1.4-3.3,2.6-6.4,2.6c-3.2,0-4.7-1.2-6.4-2.6c-1.8-1.4-3.8-3.1-7.7-3.1c-3.1,0-5,1-6.6,2.2
			c-1.8-2.3-3.5-4.6-4.9-6.9c-0.2-0.3-0.4-0.7-0.6-1c2.6-0.4,4.3-1.7,5.7-2.9c1.7-1.4,3.3-2.6,6.4-2.6c3.2,0,4.7,1.2,6.4,2.6
			c1.8,1.4,3.8,3.1,7.7,3.1c3.9,0,5.9-1.6,7.7-3.1c1.7-1.4,3.3-2.6,6.4-2.6c3.2,0,4.7,1.2,6.4,2.6c1.8,1.4,3.8,3.1,7.7,3.1
			c3.9,0,5.9-1.6,7.7-3.1c1.7-1.4,3.3-2.6,6.4-2.6c3.2,0,4.7,1.2,6.4,2.6c1.8,1.4,3.8,3.1,7.7,3.1c3.9,0,5.9-1.6,7.7-3.1
			c1.7-1.4,3.3-2.6,6.4-2.6c3.2,0,4.7,1.2,6.4,2.6c1.5,1.2,3.1,2.5,5.7,2.9C584.6,106.4,584.4,106.7,584.2,107.1z M590.9,87.2v0.1
			v1.3c0,0.9-0.2,2.3-0.6,4.2c-0.6,2.6-1.8,6.6-4.4,11.3c-2.6-0.2-3.9-1.3-5.5-2.6c-1.8-1.4-3.8-3.1-7.7-3.1s-5.9,1.6-7.7,3.1
			c-1.7,1.4-3.3,2.6-6.4,2.6c-3.2,0-4.7-1.2-6.4-2.6c-1.8-1.4-3.8-3.1-7.7-3.1s-5.9,1.6-7.7,3.1c-1.7,1.4-3.3,2.6-6.4,2.6
			c-3.2,0-4.7-1.2-6.4-2.6c-1.8-1.4-3.8-3.1-7.7-3.1c-3.9,0-5.9,1.6-7.7,3.1c-1.7,1.4-3.3,2.6-6.4,2.6c-3.2,0-4.7-1.2-6.4-2.6
			c-1.8-1.4-3.8-3.1-7.7-3.1c-3.9,0-5.9,1.6-7.7,3.1c-1.6,1.3-2.9,2.4-5.5,2.6c-2.6-4.8-3.8-8.7-4.4-11.3c-0.4-1.8-0.6-3.3-0.6-4.2
			v-1.3v-0.1v-6.8c0-2.1,1.7-3.8,3.8-3.8c2.1,0,3.8,1.7,3.8,3.8v12.4h11.3V77.9c0-2.1,1.7-3.8,3.8-3.8c2.1,0,3.8,1.7,3.8,3.8v14.9
			h11.3V75.4c0-2.1,1.7-3.8,3.8-3.8c2.1,0,3.8,1.7,3.8,3.8v17.4h11.3V72.8c0-2.1,1.7-3.8,3.8-3.8c2.1,0,3.8,1.7,3.8,3.8v19.9h11.3
			V75.4c0-2.1,1.7-3.8,3.8-3.8s3.8,1.7,3.8,3.8v17.4h11.3V77.9c0-2.1,1.7-3.8,3.8-3.8c2.1,0,3.8,1.7,3.8,3.8v14.9h11.3V80.4
			c0-2.1,1.7-3.8,3.8-3.8s3.8,1.7,3.8,3.8V87.2z M590.9,74.7c-1.1-0.7-2.4-1.2-3.8-1.2c-3.8,0-6.9,3.1-6.9,6.8v9.4H575V77.9
			c0-3.8-3.1-6.8-6.9-6.8c-3.8,0-6.9,3.1-6.9,6.8v11.9H556V75.4c0-3.8-3.1-6.8-6.9-6.8c-3.8,0-6.9,3.1-6.9,6.8v14.4h-5.2V72.8
			c0-3.8-3.1-6.8-6.9-6.8c-3.8,0-6.9,3.1-6.9,6.8v16.9h-5.2V75.4c0-3.8-3.1-6.8-6.9-6.8c-3.8,0-6.9,3.1-6.9,6.8v14.4h-5.2V77.9
			c0-3.8-3.1-6.8-6.9-6.8s-6.9,3.1-6.9,6.8v11.9h-5.2v-9.4c0-3.8-3.1-6.8-6.9-6.8c-1.4,0-2.7,0.4-3.8,1.2v-3.1
			c18.2-10.5,39.2-16.1,60.7-16.1c21.5,0,42.5,5.6,60.7,16.1V74.7z M524.5,22.3c0.7-0.1,1.5-0.1,2.3-0.1l1.4-0.1v-2.8
			c1.3,0,2.6,0,3.9,0v2.8l1.4,0.1c0.8,0,1.6,0.1,2.3,0.1l1.6,0.1v-3c1.4,0.1,2.8,0.2,4.2,0.3v8.4c-3.8-0.3-7.7-0.4-11.5-0.4
			c-3.8,0-7.7,0.1-11.5,0.4v-8.4c1.4-0.1,2.8-0.2,4.2-0.3v3L524.5,22.3z M519.7,31.2c3.5-0.3,7.1-0.4,10.6-0.4c3.5,0,7,0.1,10.5,0.4
			l-1.6,3l2.3,18.6c-3.8-0.3-7.5-0.5-11.3-0.5h0c-3.7,0-7.5,0.2-11.3,0.5l2.3-18.6L519.7,31.2z M590.9,68.7
			c-14.2-8-29.9-13-46.2-14.9l-2.4-19.1l2.4-4.7V17l-1.4-0.1c-2.4-0.3-4.9-0.4-7.3-0.5l-1.6-0.1v0l-0.8,0c-1.2,0-2.4-0.1-3.5-0.1
			c-1.1,0-2.3,0-3.5,0.1l-0.8,0v0l-1.6,0.1c-2.4,0.1-4.8,0.3-7.3,0.5l-1.4,0.1v13l2.4,4.7l-2.3,19.1c-16.3,1.9-32.1,6.9-46.2,14.9
			V9.8h121.4V68.7z"/>
		<path class="st0" d="M561.2,43.9c2.3-0.2,4.6-0.5,6.7,0.9l0.5,0.3l0.5-0.3c2.2-1.4,4.4-1.1,6.7-0.9c2.6,0.3,5.3,0.6,8-1.2l0.5-0.3
			V17.9l-1.6,1c-2.2,1.4-4.4,1.1-6.7,0.9c-2.4-0.3-4.9-0.5-7.5,0.9c-2.6-1.4-5-1.1-7.5-0.9c-2.3,0.2-4.6,0.5-6.7-0.9l-1.6-1v24.5
			l0.5,0.3C555.9,44.5,558.6,44.2,561.2,43.9z M569.4,22.4c2-1.1,4.1-0.8,6.2-0.6c2.1,0.2,4.2,0.5,6.4-0.4v19.9
			c-2,1.1-4.1,0.8-6.2,0.6c-2.1-0.2-4.2-0.5-6.5,0.4V22.4z M554.7,21.4c2.2,0.8,4.4,0.6,6.4,0.4c2.2-0.2,4.2-0.4,6.2,0.6v19.9
			c-1.2-0.5-2.4-0.6-3.5-0.6c-1,0-2,0.1-2.9,0.2c-2.2,0.2-4.2,0.5-6.2-0.6V21.4z"/>
		<path class="st0" d="M556.6,26.3c1.6,1,3.1,0.8,4.5,0.7c1.3-0.1,2.5-0.3,3.7,0.5c0.1,0.1,0.2,0.1,0.3,0.1c0.2,0,0.4-0.1,0.5-0.3
			c0.2-0.3,0.1-0.7-0.2-0.9c-1.6-1-3.1-0.8-4.5-0.7c-1.3,0.1-2.5,0.3-3.7-0.5c-0.3-0.2-0.7-0.1-0.9,0.2
			C556.2,25.7,556.3,26.1,556.6,26.3z"/>
		<path class="st0" d="M556.6,31.8c1.6,1,3.1,0.8,4.5,0.7c1.3-0.1,2.5-0.3,3.7,0.5c0.1,0.1,0.2,0.1,0.3,0.1c0.2,0,0.4-0.1,0.5-0.3
			c0.2-0.3,0.1-0.7-0.2-0.9c-1.6-1-3.1-0.8-4.5-0.7c-1.3,0.1-2.5,0.3-3.7-0.5c-0.3-0.2-0.7-0.1-0.9,0.2
			C556.2,31.2,556.3,31.6,556.6,31.8z"/>
		<path class="st0" d="M561.1,38c1.3-0.1,2.5-0.3,3.7,0.5c0.1,0.1,0.2,0.1,0.3,0.1c0.2,0,0.4-0.1,0.5-0.3c0.2-0.3,0.1-0.7-0.2-0.9
			c-1.6-1-3.1-0.8-4.5-0.7c-1.3,0.1-2.5,0.3-3.7-0.5c-0.3-0.2-0.7-0.1-0.9,0.2c-0.2,0.3-0.1,0.7,0.2,0.9
			C558.1,38.3,559.7,38.2,561.1,38z"/>
		<path class="st0" d="M575.8,38c1.4,0.1,3,0.3,4.5-0.7c0.3-0.2,0.4-0.6,0.2-0.9c-0.2-0.3-0.6-0.4-0.9-0.2c-1.2,0.8-2.4,0.6-3.7,0.5
			c-1.4-0.1-3-0.3-4.5,0.7c-0.3,0.2-0.4,0.6-0.2,0.9c0.1,0.2,0.3,0.3,0.5,0.3c0.1,0,0.2,0,0.3-0.1C573.2,37.7,574.5,37.9,575.8,38z"
			/>
		<path class="st0" d="M571.7,33.1c0.1,0,0.2,0,0.3-0.1c1.2-0.8,2.4-0.6,3.7-0.5c1.4,0.1,3,0.3,4.5-0.7c0.3-0.2,0.4-0.6,0.2-0.9
			c-0.2-0.3-0.6-0.4-0.9-0.2c-1.2,0.8-2.4,0.6-3.7,0.5c-1.4-0.1-3-0.3-4.5,0.7c-0.3,0.2-0.4,0.6-0.2,0.9
			C571.3,33,571.5,33.1,571.7,33.1z"/>
		<path class="st0" d="M571.7,27.5c0.1,0,0.2,0,0.3-0.1c1.2-0.8,2.4-0.6,3.7-0.5c1.4,0.1,3,0.3,4.5-0.7c0.3-0.2,0.4-0.6,0.2-0.9
			c-0.2-0.3-0.6-0.4-0.9-0.2c-1.2,0.8-2.4,0.6-3.7,0.5c-1.4-0.1-3-0.3-4.5,0.7c-0.3,0.2-0.4,0.6-0.2,0.9
			C571.3,27.4,571.5,27.5,571.7,27.5z"/>
		<path class="st0" d="M485.2,43.9c2.3-0.2,4.6-0.5,6.7,0.9l0.5,0.3l0.5-0.3c2.2-1.4,4.4-1.1,6.7-0.9c2.6,0.3,5.3,0.6,8-1.2l0.5-0.3
			V17.9l-1.6,1c-2.2,1.4-4.4,1.1-6.7,0.9c-2.4-0.3-4.9-0.5-7.5,0.9c-2.6-1.4-5-1.1-7.5-0.9c-2.3,0.2-4.6,0.5-6.7-0.9l-1.6-1v24.5
			l0.5,0.3C480,44.5,482.7,44.2,485.2,43.9z M493.5,22.4c2-1.1,4.1-0.8,6.2-0.6c2.1,0.2,4.2,0.5,6.4-0.4v19.9
			c-2,1.1-4.1,0.8-6.2,0.6c-2.1-0.2-4.2-0.5-6.4,0.4V22.4z M478.8,21.4c2.2,0.8,4.4,0.6,6.4,0.4c2.2-0.2,4.2-0.4,6.2,0.6v19.9
			c-1.2-0.5-2.4-0.6-3.5-0.6c-1,0-2,0.1-2.9,0.2c-2.2,0.2-4.2,0.5-6.2-0.6V21.4z"/>
		<path class="st0" d="M480.6,26.3c1.6,1,3.1,0.8,4.5,0.7c1.3-0.1,2.5-0.3,3.7,0.5c0.1,0.1,0.2,0.1,0.3,0.1c0.2,0,0.4-0.1,0.5-0.3
			c0.2-0.3,0.1-0.7-0.2-0.9c-1.6-1-3.1-0.8-4.5-0.7c-1.3,0.1-2.5,0.3-3.7-0.5c-0.3-0.2-0.7-0.1-0.9,0.2
			C480.2,25.7,480.3,26.1,480.6,26.3z"/>
		<path class="st0" d="M480.6,31.8c1.6,1,3.1,0.8,4.5,0.7c1.3-0.1,2.5-0.3,3.7,0.5c0.1,0.1,0.2,0.1,0.3,0.1c0.2,0,0.4-0.1,0.5-0.3
			c0.2-0.3,0.1-0.7-0.2-0.9c-1.6-1-3.1-0.8-4.5-0.7c-1.3,0.1-2.5,0.3-3.7-0.5c-0.3-0.2-0.7-0.1-0.9,0.2
			C480.2,31.2,480.3,31.6,480.6,31.8z"/>
		<path class="st0" d="M485.1,38c1.3-0.1,2.5-0.3,3.7,0.5c0.1,0.1,0.2,0.1,0.3,0.1c0.2,0,0.4-0.1,0.5-0.3c0.2-0.3,0.1-0.7-0.2-0.9
			c-1.6-1-3.1-0.8-4.5-0.7c-1.3,0.1-2.5,0.3-3.7-0.5c-0.3-0.2-0.7-0.1-0.9,0.2c-0.2,0.3-0.1,0.7,0.2,0.9
			C482.2,38.3,483.7,38.2,485.1,38z"/>
		<path class="st0" d="M499.8,38c1.4,0.1,3,0.3,4.5-0.7c0.3-0.2,0.4-0.6,0.2-0.9c-0.2-0.3-0.6-0.4-0.9-0.2c-1.2,0.8-2.4,0.6-3.7,0.5
			c-1.4-0.1-3-0.3-4.5,0.7c-0.3,0.2-0.4,0.6-0.2,0.9c0.1,0.2,0.3,0.3,0.5,0.3c0.1,0,0.2,0,0.3-0.1C497.3,37.7,498.5,37.9,499.8,38z"
			/>
		<path class="st0" d="M495.8,33.1c0.1,0,0.2,0,0.3-0.1c1.2-0.8,2.4-0.6,3.7-0.5c1.4,0.1,3,0.3,4.5-0.7c0.3-0.2,0.4-0.6,0.2-0.9
			c-0.2-0.3-0.6-0.4-0.9-0.2c-1.2,0.8-2.4,0.6-3.7,0.5c-1.4-0.1-3-0.3-4.5,0.7c-0.3,0.2-0.4,0.6-0.2,0.9
			C495.4,33,495.6,33.1,495.8,33.1z"/>
		<path class="st0" d="M495.8,27.5c0.1,0,0.2,0,0.3-0.1c1.2-0.8,2.4-0.6,3.7-0.5c1.4,0.1,3,0.3,4.5-0.7c0.3-0.2,0.4-0.6,0.2-0.9
			c-0.2-0.3-0.6-0.4-0.9-0.2c-1.2,0.8-2.4,0.6-3.7,0.5c-1.4-0.1-3-0.3-4.5,0.7c-0.3,0.2-0.4,0.6-0.2,0.9
			C495.4,27.4,495.6,27.5,495.8,27.5z"/>
		<path class="st0" d="M533.2,44.5l-1.1-9.2c-0.6,0-1.3,0-1.9,0c-0.6,0-1.2,0-1.9,0l-1.1,9.2c0.9,0,1.8,0,2.7,0
			C531,44.4,532.1,44.5,533.2,44.5z"/>
		<path class="st0" d="M518.3,116.7c1.6,1,3.1,0.8,4.5,0.7c0.2,0,0.5,0,0.7-0.1c1-0.1,2-0.1,3,0.6c0.1,0.1,0.2,0.1,0.3,0.1
			c0.2,0,0.4-0.1,0.5-0.3c0.1-0.2,0.1-0.3,0.1-0.5c0-0.1-0.1-0.3-0.3-0.4c-0.6-0.4-1.3-0.6-1.9-0.7c-0.9-0.1-1.8,0-2.6,0
			c-0.2,0-0.4,0-0.6,0.1c-1.1,0.1-2.1,0.1-3.1-0.5c-0.3-0.2-0.7-0.1-0.9,0.2C518,116.1,518.1,116.5,518.3,116.7z"/>
		<path class="st0" d="M518.3,122.2c1.6,1,3.1,0.8,4.5,0.7c1.3-0.1,2.5-0.3,3.7,0.5c0.1,0.1,0.2,0.1,0.3,0.1c0.2,0,0.4-0.1,0.5-0.3
			c0.2-0.3,0.1-0.7-0.2-0.9c-1.6-1-3.1-0.8-4.5-0.7c-1.3,0.1-2.5,0.3-3.7-0.5c-0.3-0.2-0.7-0.1-0.9,0.2
			C518,121.6,518.1,122,518.3,122.2z"/>
		<path class="st0" d="M523.9,128.3c0.9,0,1.8,0,2.7,0.6c0.1,0.1,0.2,0.1,0.3,0.1c0.2,0,0.4-0.1,0.5-0.3c0.2-0.3,0.1-0.7-0.2-0.9
			c-0.2-0.1-0.4-0.3-0.7-0.4c-1.3-0.6-2.7-0.4-3.9-0.3c-0.1,0-0.2,0-0.3,0c-1.2,0.1-2.4,0.2-3.5-0.5c-0.3-0.2-0.7-0.1-0.9,0.2
			c-0.1,0.1-0.1,0.3-0.1,0.4c0,0.1,0,0.1,0,0.2c0,0.1,0.1,0.2,0.2,0.3c0.8,0.5,1.7,0.7,2.5,0.8c0.7,0,1.4,0,2-0.1
			C523.2,128.3,523.6,128.3,523.9,128.3z"/>
		<path class="st0" d="M536.5,128.3c0.3,0,0.7,0.1,1.1,0.1c0.6,0.1,1.3,0.1,2,0.1c0.8,0,1.7-0.2,2.5-0.8c0.1-0.1,0.2-0.2,0.2-0.3
			c0-0.1,0-0.1,0-0.2c0-0.1,0-0.3-0.1-0.4c-0.2-0.3-0.6-0.4-0.9-0.2c-1.1,0.7-2.3,0.6-3.5,0.5c-0.1,0-0.2,0-0.3,0
			c-1.2-0.1-2.5-0.3-3.9,0.3c-0.2,0.1-0.4,0.2-0.7,0.4c-0.3,0.2-0.4,0.6-0.2,0.9c0.1,0.2,0.3,0.3,0.5,0.3c0.1,0,0.2,0,0.3-0.1
			C534.7,128.3,535.6,128.2,536.5,128.3z"/>
		<path class="st0" d="M533.5,123.4c0.1,0,0.2,0,0.3-0.1c1.2-0.8,2.4-0.6,3.7-0.5c1.4,0.1,3,0.3,4.5-0.7c0.3-0.2,0.4-0.6,0.2-0.9
			c-0.2-0.3-0.6-0.4-0.9-0.2c-1.2,0.8-2.4,0.6-3.7,0.5c-1.4-0.1-3-0.3-4.5,0.7c-0.3,0.2-0.4,0.6-0.2,0.9
			C533.1,123.3,533.3,123.4,533.5,123.4z"/>
		<path class="st0" d="M533.5,117.9c0.1,0,0.2,0,0.3-0.1c1-0.6,2-0.6,3-0.6c0.2,0,0.5,0,0.7,0.1c1.4,0.1,3,0.3,4.5-0.7
			c0.3-0.2,0.4-0.6,0.2-0.9c-0.2-0.3-0.6-0.4-0.9-0.2c-1,0.6-2,0.6-3.1,0.5c-0.2,0-0.4,0-0.6-0.1c-0.8-0.1-1.7-0.2-2.6,0
			c-0.6,0.1-1.3,0.3-1.9,0.7c-0.1,0.1-0.2,0.2-0.3,0.4c0,0.2,0,0.3,0.1,0.5C533.1,117.8,533.3,117.9,533.5,117.9z"/>
		<g>
			<path class="st0" d="M382.4,57.2c-1.9,0-3.7-0.3-5.4-1.1c-2.9-1.4-4.7-3.6-5.5-6.6c-0.6-2.2-0.6-4.5-0.3-6.7
				c0.4-2.8,1.4-5.4,3-7.7c2.4-3.4,5.6-5.5,9.6-6.2c2.5-0.5,5-0.4,7.4,0.4c3.4,1.2,5.5,3.6,6.5,7.1c0.5,1.9,0.5,3.7,0.4,5.6
				c-0.2,2.6-0.9,5.1-2.3,7.3c-2.6,4.5-6.6,7.2-11.8,7.8C383.4,57.2,382.9,57.2,382.4,57.2z M377.6,46.3c0.1,0.5,0.1,1.4,0.3,2.3
				c0.2,1.4,0.9,2.6,2.1,3.4c1.9,1.2,4.8,1,6.6-0.5c1.4-1.1,2.4-2.5,3.1-4.1c0.8-1.9,1.3-3.9,1.5-5.9c0.1-1.5,0.1-3-0.2-4.6
				c-0.2-1.1-0.7-2.2-1.6-2.9c-1.9-1.4-3.9-1.4-5.9-0.5c-1.7,0.8-2.9,2.2-3.8,3.8C378.3,40,377.7,42.9,377.6,46.3z M412.2,33.1
				c0.2,0,5.9,0,6.8,0c0.7,0,0.9-0.2,1-0.9c0.1-0.7,0.3-1.4,0.4-2.1c0.2-1,0-1.1-0.9-1.1c-2.1,0-3.7,0-5.8,0c-0.1,0-0.6,0.1-0.8-0.3
				c-0.2-0.2-0.1-0.8,0-1.3c0.8-4.7,1-6,2.9-6.5c2.4-0.7,5.2,0.9,5.8,1.1c0.6,0.1,0.9,0,1.1-0.6c0.3-0.6,0.5-1.4,0.6-2.1
				c0.2-0.7-0.1-1.2-0.7-1.6c-0.3-0.2-0.7-0.3-1-0.5c-2.5-0.8-4.9-1.1-7.6-0.4c-1.1,0.3-2.5,0.9-4,2.2c-2.3,2.1-2.6,4.1-3.2,8.2
				c-0.1,0.8-0.3,1.7-0.3,1.7s-2.1,0-3.2,0c-0.2,0-0.4,0-0.6,0c-0.4,0.1-0.6,0.3-0.7,0.6c-0.2,0.9-0.4,1.9-0.5,2.8
				c-0.1,0.4,0.1,0.6,0.5,0.6c0.2,0,0.5,0,0.7,0l3.3,0l1,0"/>
			<path class="st0" d="M412.3,32.9c-0.8,10.9-2,19.1-2.5,22c-0.3,1.4-0.5,2.9-1.5,4.9c-0.6,1.2-0.9,1.8-1.6,2.7
				c-1.7,2.1-6.3,3.6-8.8,3.3c-0.4-0.1-1.2-0.1-1.5-0.8c-0.1-0.4-0.1-1,0.1-1.3c0.7-1,2.3-0.3,3.5-0.6c3-0.7,3.8-7.4,3.9-9.1
				c0.8-7.1,1.5-14.4,2.1-21.9L412.3,32.9z"/>
		</g>
		<g>
			<path class="st0" d="M11.3,17c3.5,0,3.8,0.2,3.8,1.6v25.1c0,3.3,0.3,5.2,1.9,6.4c1.4,1,3.4,1.6,6.3,1.6c2.7,0,4.6-0.5,5.9-1.6
				c1.6-1.3,2-3.3,2-6.4V18.6c0-1.4,0.2-1.6,3.7-1.6c3.5,0,3.6,0.2,3.6,1.6v25.7c0,3.9-0.8,7-3.3,9.4c-2.7,2.5-6.5,3.6-11.9,3.6
				c-5.5,0-9.6-1.2-12.2-3.6c-2.7-2.5-3.5-5.7-3.5-9.4V22.9c0-4.2-2.2-3.6-2.2-4.9c0-0.8,1-1,4.6-1H11.3z"/>
			<path class="st0" d="M76.7,43.6V22.9c0-4.2-2.2-3.6-2.2-4.9c0-0.8,1-1,4.6-1h1.1c3.6,0,4.6,0.2,4.6,1c0,1.3-2.2,0.7-2.2,4.9v32.7
				c0,0.8-0.4,1.2-2.3,1.2h-0.4c-1.7,0-2-0.2-2.7-1.1L58.4,32c-0.9-1.2-2-2.6-2.7-3.5h-0.1v22.4c0,4.2,2.2,3.6,2.2,4.9
				c0,0.8-1,1-4.6,1h-1.1c-3.6,0-4.6-0.2-4.6-1c0-1.3,2.2-0.7,2.2-4.9V22.9c0-4.2-2.2-3.6-2.2-4.9c0-0.8,1-1,4.6-1h0.4
				c3.1,0,3.5,0.6,5.4,2.9l16,20.2c0.9,1.2,2,2.6,2.7,3.5H76.7z"/>
			<path class="st0" d="M102.7,50.9c0,4.2,2.2,3.6,2.2,4.9c0,0.8-1,1-4.6,1h-2.9c-3.6,0-4.6-0.2-4.6-1c0-1.3,2.2-0.7,2.2-4.9V22.9
				c0-4.2-2.2-3.6-2.2-4.9c0-0.8,1-1,4.6-1h2.9c3.6,0,4.6,0.2,4.6,1c0,1.3-2.2,0.7-2.2,4.9V50.9z"/>
			<path class="st0" d="M140.8,23.6c0.3-0.9,0.6-1.7,0.6-2.3c0-0.8-0.3-1.4-1.1-2.1c-0.5-0.5-0.7-0.7-0.7-1c0-1,0.8-1.1,5.6-1.1
				c4.6,0,5.6,0.1,5.6,1c0,0.4-0.2,0.6-0.6,1c-1.7,1.3-2.5,2.5-3.3,4.5l-12.1,31.7c-0.5,1.4-1.2,1.6-2.2,1.6h-1
				c-1,0-1.6-0.2-2.2-1.6l-13.3-32.6c-0.8-2-2-2.9-3.5-3.7c-0.5-0.3-0.7-0.6-0.7-0.9c0-1,2.1-1,5.2-1c4.3,0,5.2,0.5,6.6,4l5.5,13.8
				c1,2.4,2.8,7,3.9,9.9h0.1c1.2-3.6,2.2-6.2,3.5-9.9L140.8,23.6z"/>
			<path class="st0" d="M167.4,51.9c1.2-0.1,3.1-0.2,6.3-0.2H184c0.8,0,1,0.2,1,1v3.2c0,0.7-0.3,1-1,1h-21.8c-3.6,0-4.6-0.2-4.6-1
				c0-1.3,2.2-0.7,2.2-4.9V22.9c0-4.2-2.2-3.6-2.2-4.9c0-0.8,1-1,4.6-1h21.2c0.8,0,1,0.2,1,1v3.2c0,0.7-0.3,1-1,1h-9.7
				c-3.2,0-5.1-0.1-6.3-0.2v11.8h13.1c0.8,0,1,0.2,1,1v3.1c0,0.7-0.3,1-1,1h-13.1V51.9z"/>
			<path class="st0" d="M213.6,40l8.7,11.4c1.2,1.7,2.3,2.6,4.1,3.8c0.4,0.3,0.5,0.5,0.5,0.8c0,0.9-2,1-5.3,1
				c-3.7,0-4.5-0.5-6.3-2.9l-9.5-12.5h-3.8v9.4c0,4.2,2.2,3.6,2.2,4.9c0,0.8-1,1-4.6,1h-2.9c-3.6,0-4.6-0.2-4.6-1
				c0-1.3,2.2-0.7,2.2-4.9V22.9c0-4.2-2.2-3.6-2.2-4.9c0-0.8,1-1,4.6-1h5.2c6.1,0,10.2,0.6,12.9,1.8c3.8,1.7,6.8,4.7,6.8,10.1
				C221.8,35,218.8,38,213.6,40z M204.2,21.6h-2.2v15.3c9,0,11.9-2.9,11.9-7.9C213.9,23.2,210,21.6,204.2,21.6z"/>
			<path class="st0" d="M232.7,26.4c0-5.6,5.3-9.9,13.4-9.9c3.9,0,8,1,10.4,3.2c1,0.8,1.4,1.8,1.4,3.2c0,1.9-1,3.7-2.6,3.7
				c-1,0-1.8-0.8-2.8-1.7c-2.3-2.1-5-3.1-7.2-3.1c-2.9,0-5,1.4-5,3.7c0,7.8,19.2,7,19.2,19.9c0,3.2-1.2,6-3.3,8.1
				c-2.6,2.5-6.8,3.8-11.1,3.8c-4.2,0-8.3-1.1-11.3-3.4c-1.2-0.9-1.5-1.9-1.5-3.2c0-1.8,1-3.7,2.7-3.7c2.3,0,4.1,5.1,10.6,5.1
				c3.4,0,6.3-1.8,6.3-5.7C251.8,37.6,232.7,38.8,232.7,26.4z"/>
			<path class="st0" d="M276.1,50.9c0,4.2,2.2,3.6,2.2,4.9c0,0.8-1,1-4.6,1h-2.9c-3.6,0-4.6-0.2-4.6-1c0-1.3,2.2-0.7,2.2-4.9V22.9
				c0-4.2-2.2-3.6-2.2-4.9c0-0.8,1-1,4.6-1h2.9c3.6,0,4.6,0.2,4.6,1c0,1.3-2.2,0.7-2.2,4.9V50.9z"/>
			<path class="st0" d="M316.1,17c0.8,0,1,0.2,1,1v3.2c0,0.7-0.3,1-1,1h-4.9c-3.2,0-5.1-0.1-6.3-0.2v29c0,4.2,2.2,3.6,2.2,4.9
				c0,0.8-1,1-4.6,1h-2.9c-3.6,0-4.6-0.2-4.6-1c0-1.3,2.2-0.7,2.2-4.9v-29c-1.2,0.1-3.1,0.2-6.3,0.2h-4.9c-0.8,0-1-0.3-1-1v-3.2
				c0-0.8,0.3-1,1-1H316.1z"/>
			<path class="st0" d="M360.3,18c0,0.4-0.2,0.6-0.6,1c-1.6,1.3-2.5,2.6-3.5,4.5l-10.5,20.4v7c0,4.2,2.2,3.6,2.2,4.9
				c0,0.8-1,1-4.6,1h-2.9c-3.6,0-4.6-0.2-4.6-1c0-1.3,2.2-0.7,2.2-4.9v-7l-10.8-21.2c-1-1.9-2-2.9-3.6-3.7c-0.5-0.3-0.7-0.6-0.7-0.9
				c0-1,2-1,5.2-1c4.3,0,5.2,0.7,6.8,4l3.1,6.2c1.6,3.1,3.3,6.6,4.8,9.8h0.1c1.4-2.9,3.1-6.2,5-9.8l1.9-3.6c0.5-0.8,0.7-1.7,0.7-2.3
				c0-0.8-0.3-1.4-1.1-2.1c-0.5-0.5-0.7-0.7-0.7-1c0-1,0.9-1.1,5.7-1.1C359.2,17,360.3,17.1,360.3,18z"/>
		</g>
	</g>
</g>
</svg>
