<?xml version="1.0" encoding="UTF-8" standalone="no"?>
<!-- Generator: Adobe Illustrator 16.0.0, SVG Export Plug-In . SVG Version: 6.00 Build 0)  -->

<svg
   xmlns:dc="http://purl.org/dc/elements/1.1/"
   xmlns:cc="http://creativecommons.org/ns#"
   xmlns:rdf="http://www.w3.org/1999/02/22-rdf-syntax-ns#"
   xmlns:svg="http://www.w3.org/2000/svg"
   xmlns="http://www.w3.org/2000/svg"
   xmlns:sodipodi="http://sodipodi.sourceforge.net/DTD/sodipodi-0.dtd"
   xmlns:inkscape="http://www.inkscape.org/namespaces/inkscape"
   version="1.1"
   id="Capa_1"
   x="0px"
   y="0px"
   width="405.23999"
   height="405.23999"
   viewBox="0 0 405.24 490.21"
   xml:space="preserve"
   sodipodi:docname="weblink.svg"
   inkscape:version="0.92.5 (2060ec1f9f, 2020-04-08)"><metadata
   id="metadata47"><rdf:RDF><cc:Work
       rdf:about=""><dc:format>image/svg+xml</dc:format><dc:type
         rdf:resource="http://purl.org/dc/dcmitype/StillImage" /><dc:title></dc:title></cc:Work></rdf:RDF></metadata><defs
   id="defs45" /><sodipodi:namedview
   pagecolor="#ffffff"
   bordercolor="#666666"
   borderopacity="1"
   objecttolerance="10"
   gridtolerance="10"
   guidetolerance="10"
   inkscape:pageopacity="0"
   inkscape:pageshadow="2"
   inkscape:window-width="1920"
   inkscape:window-height="1043"
   id="namedview43"
   showgrid="false"
   viewbox-height="490.21"
   inkscape:zoom="0.58237095"
   inkscape:cx="-140.80373"
   inkscape:cy="202.62"
   inkscape:window-x="0"
   inkscape:window-y="0"
   inkscape:window-maximized="1"
   inkscape:current-layer="Capa_1" />
<g
   id="g10"
   style="fill:#e35420;fill-opacity:0.99999994">
	<g
   id="g8"
   style="fill:#e35420;fill-opacity:0.99999994">
		<g
   id="g6"
   style="fill:#e35420;fill-opacity:0.99999994">
			<path
   d="M 249.037,330.626 H 28.283 V 86.909 h 335.623 v 181.629 l 28.283,28.283 V 26.195 c 0,-12.996 -10.573,-23.569 -23.568,-23.569 H 23.568 C 10.573,2.626 0,13.199 0,26.195 v 309.146 c 0,12.995 10.573,23.568 23.568,23.568 H 262.479 C 249.37,340.274 249.037,330.626 249.037,330.626 Z M 338.026,42.202 c 0,-4.806 3.896,-8.702 8.702,-8.702 h 8.701 c 4.807,0 8.702,3.896 8.702,8.702 v 9.863 c 0,4.806 -3.896,8.702 -8.702,8.702 h -8.701 c -4.808,0 -8.702,-3.896 -8.702,-8.702 z m -40.465,0 c 0,-4.806 3.896,-8.702 8.701,-8.702 h 8.703 c 4.808,0 8.702,3.896 8.702,8.702 v 9.863 c 0,4.806 -3.896,8.702 -8.702,8.702 h -8.703 c -4.806,0 -8.701,-3.896 -8.701,-8.702 z m -40.466,0 c 0,-4.806 3.897,-8.702 8.702,-8.702 h 8.702 c 4.807,0 8.703,3.896 8.703,8.702 v 9.863 c 0,4.806 -3.896,8.702 -8.703,8.702 h -8.702 c -4.805,0 -8.702,-3.896 -8.702,-8.702 z"
   id="path2"
   inkscape:connector-curvature="0"
   style="fill:#e35420;fill-opacity:0.99999994" />
			<path
   d="m 392.606,322.19 -41.165,-41.166 c -9.292,-9.291 -21.797,-13.446 -33.972,-12.487 0.958,-12.175 -3.196,-24.679 -12.487,-33.972 L 263.817,193.4 c -16.848,-16.846 -44.256,-16.845 -61.103,0 l -6.689,6.688 c -16.846,16.845 -16.846,44.255 0,61.102 l 41.166,41.164 c 9.293,9.293 21.797,13.446 33.971,12.489 -0.958,12.174 3.197,24.679 12.489,33.972 l 41.165,41.164 c 16.845,16.846 44.255,16.846 61.101,0 l 6.688,-6.688 c 16.847,-16.846 16.847,-44.256 10e-4,-61.101 z m -130.339,-48.003 17.062,17.063 c -8.687,5.173 -20.118,4.027 -27.586,-3.439 l -41.166,-41.166 c -8.824,-8.822 -8.824,-23.182 0,-32.006 l 6.688,-6.688 c 8.823,-8.824 23.182,-8.824 32.004,0 l 41.166,41.165 c 7.47,7.469 8.613,18.898 3.439,27.587 L 276.812,259.64 c -4.019,-4.018 -10.53,-4.018 -14.548,0 -4.016,4.016 -4.016,10.529 0.003,14.547 z m 115.791,94.556 -6.688,6.688 c -8.824,8.824 -23.181,8.824 -32.005,0.001 L 298.2,334.267 c -7.468,-7.469 -8.614,-18.898 -3.44,-27.586 l 17.063,17.062 c 4.018,4.019 10.529,4.019 14.548,0 4.017,-4.018 4.017,-10.53 0,-14.548 l -17.063,-17.063 c 8.688,-5.174 20.118,-4.027 27.589,3.44 l 41.164,41.165 c 8.821,8.825 8.821,23.182 -0.003,32.006 z"
   id="path4"
   inkscape:connector-curvature="0"
   style="fill:#e35420;fill-opacity:0.99999994" />
		</g>
	</g>
</g>
<g
   id="g12">
</g>
<g
   id="g14">
</g>
<g
   id="g16">
</g>
<g
   id="g18">
</g>
<g
   id="g20">
</g>
<g
   id="g22">
</g>
<g
   id="g24">
</g>
<g
   id="g26">
</g>
<g
   id="g28">
</g>
<g
   id="g30">
</g>
<g
   id="g32">
</g>
<g
   id="g34">
</g>
<g
   id="g36">
</g>
<g
   id="g38">
</g>
<g
   id="g40">
</g>
</svg>