<?xml version="1.0" encoding="UTF-8" standalone="no"?>
<svg 
  xmlns="http://www.w3.org/2000/svg" 
  version="1.1" 
  id="Capa_1" 
  width="405.24" 
  height="405.24" 
  viewBox="0 0 405.24 490.21" 
  xml:space="preserve">
  <g id="weblink-icon" fill="currentColor">
    <path d="M 249.037,330.626 H 28.283 V 86.909 h 335.623 v 181.629 l 28.283,28.283 V 26.195 c 0,-12.996 -10.573,-23.569 -23.568,-23.569 H 23.568 C 10.573,2.626 0,13.199 0,26.195 v 309.146 c 0,12.995 10.573,23.568 23.568,23.568 H 262.479 C 249.37,340.274 249.037,330.626 249.037,330.626 Z M 338.026,42.202 c 0,-4.806 3.896,-8.702 8.702,-8.702 h 8.701 c 4.807,0 8.702,3.896 8.702,8.702 v 9.863 c 0,4.806 -3.896,8.702 -8.702,8.702 h -8.701 c -4.808,0 -8.702,-3.896 -8.702,-8.702 z m -40.465,0 c 0,-4.806 3.896,-8.702 8.701,-8.702 h 8.703 c 4.808,0 8.702,3.896 8.702,8.702 v 9.863 c 0,4.806 -3.896,8.702 -8.702,8.702 h -8.703 c -4.806,0 -8.701,-3.896 -8.701,-8.702 z m -40.466,0 c 0,-4.806 3.897,-8.702 8.702,-8.702 h 8.702 c 4.807,0 8.703,3.896 8.703,8.702 v 9.863 c 0,4.806 -3.896,8.702 -8.703,8.702 h -8.702 c -4.805,0 -8.702,-3.896 -8.702,-8.702 z" />
    
    <path d="m 392.606,322.19 -41.165,-41.166 c -9.292,-9.291 -21.797,-13.446 -33.972,-12.487 0.958,-12.175 -3.196,-24.679 -12.487,-33.972 L 263.817,193.4 c -16.848,-16.846 -44.256,-16.845 -61.103,0 l -6.689,6.688 c -16.846,16.845 -16.846,44.255 0,61.102 l 41.166,41.164 c 9.293,9.293 21.797,13.446 33.971,12.489 -0.958,12.174 3.197,24.679 12.489,33.972 l 41.165,41.164 c 16.845,16.846 44.255,16.846 61.101,0 l 6.688,-6.688 c 16.847,-16.846 16.847,-44.256 10e-4,-61.101 z m -130.339,-48.003 17.062,17.063 c -8.687,5.173 -20.118,4.027 -27.586,-3.439 l -41.166,-41.166 c -8.824,-8.822 -8.824,-23.182 0,-32.006 l 6.688,-6.688 c 8.823,-8.824 23.182,-8.824 32.004,0 l 41.166,41.165 c 7.47,7.469 8.613,18.898 3.439,27.587 L 276.812,259.64 c -4.019,-4.018 -10.53,-4.018 -14.548,0 -4.016,4.016 -4.016,10.529 0.003,14.547 z m 115.791,94.556 -6.688,6.688 c -8.824,8.824 -23.181,8.824 -32.005,0.001 L 298.2,334.267 c -7.468,-7.469 -8.614,-18.898 -3.44,-27.586 l 17.063,17.062 c 4.018,4.019 10.529,4.019 14.548,0 4.017,-4.018 4.017,-10.53 0,-14.548 l -17.063,-17.063 c 8.688,-5.174 20.118,-4.027 27.589,3.44 l 41.164,41.165 c 8.821,8.825 8.821,23.182 -0.003,32.006 z" />
  </g>
</svg>