<?xml version="1.0" encoding="UTF-8" standalone="no"?>
<!-- Created with Inkscape (http://www.inkscape.org/) -->

<svg
   xmlns:osb="http://www.openswatchbook.org/uri/2009/osb"
   xmlns:dc="http://purl.org/dc/elements/1.1/"
   xmlns:cc="http://creativecommons.org/ns#"
   xmlns:rdf="http://www.w3.org/1999/02/22-rdf-syntax-ns#"
   xmlns:svg="http://www.w3.org/2000/svg"
   xmlns="http://www.w3.org/2000/svg"
   xmlns:sodipodi="http://sodipodi.sourceforge.net/DTD/sodipodi-0.dtd"
   xmlns:inkscape="http://www.inkscape.org/namespaces/inkscape"
   width="297mm"
   height="210mm"
   viewBox="0 0 297 210"
   version="1.1"
   id="svg8"
   sodipodi:docname="404.svg"
   inkscape:version="0.92.5 (2060ec1f9f, 2020-04-08)">
  <defs
     id="defs2">
    <linearGradient
       id="linearGradient2348"
       osb:paint="solid">
      <stop
         style="stop-color:#ff9955;stop-opacity:1;"
         offset="0"
         id="stop2346" />
    </linearGradient>
    <linearGradient
       id="linearGradient2292"
       osb:paint="solid">
      <stop
         style="stop-color:#ff9955;stop-opacity:1;"
         offset="0"
         id="stop2290" />
    </linearGradient>
  </defs>
  <sodipodi:namedview
     id="base"
     pagecolor="#ffffff"
     bordercolor="#666666"
     borderopacity="1.0"
     inkscape:pageopacity="0.0"
     inkscape:pageshadow="2"
     inkscape:zoom="0.7"
     inkscape:cx="308.83356"
     inkscape:cy="305.40122"
     inkscape:document-units="mm"
     inkscape:current-layer="layer1"
     showgrid="false"
     showborder="true"
     inkscape:window-width="1920"
     inkscape:window-height="972"
     inkscape:window-x="1920"
     inkscape:window-y="27"
     inkscape:window-maximized="1"
     fit-margin-top="-0.4" />
  <metadata
     id="metadata5">
    <rdf:RDF>
      <cc:Work
         rdf:about="">
        <dc:format>image/svg+xml</dc:format>
        <dc:type
           rdf:resource="http://purl.org/dc/dcmitype/StillImage" />
        <dc:title />
      </cc:Work>
    </rdf:RDF>
  </metadata>
  <g
     inkscape:label="Layer 1"
     inkscape:groupmode="layer"
     id="layer1"
     transform="translate(0,-87)">
    <path
       style="opacity:0.86000001;fill:#e35420;fill-opacity:1;stroke:none;stroke-width:0.42192146;stroke-miterlimit:4;stroke-dasharray:none;stroke-opacity:1"
       d="m 30.784705,295.43556 c -7.147698,-2.11606 -13.20654,-11.29787 -13.20654,-20.01373 0,-7.03807 3.926513,-14.71265 9.223604,-18.02804 3.47891,-2.17741 8.856068,-2.45832 12.29817,-0.64247 7.666809,4.04455 11.998517,17.97756 8.544768,27.4844 -2.855885,7.8612 -10.649569,13.03841 -16.860002,11.19984 z m 8.557135,-3.62064 c 3.733862,-2.30215 6.934471,-7.00671 7.376158,-10.84213 1.125868,-9.77664 -1.900004,-18.06574 -7.979587,-21.85945 -4.347699,-2.71302 -10.547281,-1.33428 -14.543028,3.23426 -6.283179,7.18384 -6.43527,17.96671 -0.361325,25.6188 4.494244,5.66198 10.249883,7.09034 15.507782,3.84852 z m 0.179137,-5.28766 c -0.869658,-0.92534 -1.016684,-1.41172 -0.59559,-1.97013 0.678763,-0.90011 3.109357,0.91082 3.109357,2.31665 0,1.25225 -1.161713,1.09212 -2.513767,-0.34652 z m -11.297976,-1.67918 c -3.902869,-2.75763 -1.453657,-9.41724 5.083291,-13.82193 4.237628,-2.85539 4.314071,-2.73722 3.027683,4.68048 -1.563488,9.01557 -4.155159,11.93651 -8.110974,9.14145 z m 4.120459,-2.34693 c 1.062051,-1.1018 3.362868,-10.03191 2.584701,-10.03191 -0.735887,0 -5.611903,4.54497 -6.068843,5.6568 -0.707121,1.72054 -0.656505,4.35657 0.09114,4.74945 1.1284,0.59291 2.619161,0.42844 3.392983,-0.37434 z m 9.691284,-7.0914 c 0,-1.01099 2.478217,-1.83607 3.112279,-1.03617 0.718251,0.90612 -0.164533,1.91733 -1.673762,1.91733 -0.898719,0 -1.438517,-0.33065 -1.438517,-0.88116 z m -19.442965,-4.35486 c -1.347173,-0.84604 -1.449128,-2.40733 -0.157323,-2.40733 1.113481,0 2.610342,1.7591 2.211673,2.59912 -0.341304,0.71913 -0.649868,0.69034 -2.054443,-0.19186 z m 15.370665,-5.21376 c -0.282516,-0.9587 1.083699,-2.92609 2.032,-2.92609 0.868993,0 0.685289,1.58096 -0.321597,2.76754 -1.091667,1.2865 -1.370412,1.31235 -1.710403,0.15865 z m -8.900307,-2.98904 c -0.489272,-2.90087 0.47441,-3.73819 1.456394,-1.26543 0.437417,1.10151 0.663271,2.28095 0.501881,2.62099 -0.602191,1.26879 -1.636382,0.55289 -1.958275,-1.35556 z m 122.415693,31.80828 c -2.4453,-1.40433 -2.84914,-2.54441 -1.55891,-4.40094 0.69925,-1.00615 0.64708,-1.31665 -0.61141,-3.63896 -1.19832,-2.2113 -1.56821,-2.49931 -2.86598,-2.23181 -2.16289,0.44582 -2.74487,-0.83458 -2.56969,-5.65358 l 0.14678,-4.03654 1.83425,-0.19764 c 1.02694,-0.11074 1.83425,-0.53739 1.83425,-0.96954 0,-0.42451 0.66384,-1.82059 1.47521,-3.10238 0.81137,-1.2818 1.27787,-2.48938 1.03667,-2.68348 -0.2412,-0.19404 -0.54692,-1.09104 -0.67934,-1.99313 -0.34629,-2.35899 1.49586,-3.76269 4.85496,-3.69948 2.83143,0.0532 4.5625,1.38387 4.5625,3.50687 0,0.71494 0.62106,1.5242 1.58968,2.07136 1.52626,0.86222 1.63988,0.82416 2.84812,-0.95357 0.69215,-1.01841 1.47174,-1.85162 1.73241,-1.85162 0.26068,0 1.40771,1.23894 2.54898,2.75324 2.54828,3.38116 3.25104,6.89116 1.60887,8.03559 -0.80307,0.55969 -1.03387,1.32171 -1.03147,3.40562 0.002,2.31342 0.20557,2.83466 1.46739,3.76965 1.11056,0.82291 1.46431,1.54201 1.46431,2.97663 0,2.28795 -1.85327,5.33691 -3.9223,6.45294 -1.35052,0.72844 -1.61242,0.66527 -2.68579,-0.64782 -0.95926,-1.17351 -1.3275,-1.30565 -1.90359,-0.68306 -0.39284,0.42453 -1.90194,0.93152 -3.35355,1.12662 -2.34986,0.31582 -2.69756,0.55576 -3.17064,2.18785 -0.63563,2.19284 -1.48431,2.27625 -4.65166,0.45723 z m 3.38784,-2.14474 c 0.25987,-1.01662 -2.57712,-2.21667 -3.23012,-1.36634 -0.38594,0.50258 -0.22755,0.91937 0.57125,1.50313 1.24074,0.90673 2.40745,0.84671 2.65887,-0.13674 z m 8.22901,-4.70178 c 1.57833,-1.34827 2.13262,-2.37517 2.86757,-5.31268 1.13212,-4.52496 0.80945,-6.42798 -1.59488,-9.40633 -1.80783,-2.23947 -5.86218,-4.44728 -8.16678,-4.44728 -1.94606,0 -5.04882,1.95804 -6.07419,3.83321 -1.43604,2.62621 -1.36577,9.23772 0.12867,12.09692 2.97252,5.6874 8.37585,7.04929 12.83968,3.23616 z m -8.23942,-5.0444 c -1.17319,-1.68814 -1.00354,-4.37292 0.39109,-6.18903 1.50268,-1.95677 3.38954,-2.0202 4.39669,-0.14781 1.15933,2.1554 0.9214,4.02838 -0.7435,5.85267 -1.77482,1.94471 -2.93289,2.08335 -4.04428,0.48417 z m 3.00572,-2.14732 c 0.32284,-0.42037 0.58696,-1.30018 0.58696,-1.95513 0,-2.04572 -2.16829,-1.15491 -2.35585,0.96788 -0.16602,1.87843 0.70935,2.36698 1.76889,0.98725 z m 10.40721,7.81975 c 1.68078,-2.18872 1.77311,-2.94961 0.4682,-3.85902 -0.80372,-0.56014 -1.10297,-0.38082 -1.82296,1.09224 -0.47374,0.9693 -1.0636,1.94842 -1.31079,2.1758 -0.57135,0.5256 -0.0263,2.45283 0.69367,2.45283 0.29815,0 1.1855,-0.83783 1.97188,-1.86185 z m -20.97355,-9.24139 c -0.31233,-3.4838 -1.56412,-2.99078 -1.56412,0.61602 0,2.58856 0.0919,2.82467 0.88393,2.27267 0.66886,-0.46614 0.83437,-1.16901 0.68019,-2.88869 z m 20.94388,-7.33389 c -0.2271,-0.54435 -1.0634,-1.79569 -1.85845,-2.78074 -1.28018,-1.58611 -1.48277,-1.66463 -1.77104,-0.68645 -0.41246,1.39968 3.12001,6.40044 3.68308,5.21402 0.19762,-0.4164 0.17359,-1.20248 -0.0536,-1.74683 z m -12.92992,-5.12988 c 2.00818,0 2.33381,-1.67025 0.4459,-2.28728 -1.39086,-0.45458 -4.64353,0.18633 -4.64353,0.91484 0,0.9309 1.20309,2.03333 1.86048,1.70482 0.36586,-0.18272 1.41757,-0.33238 2.33715,-0.33238 z m -97.646205,27.42569 c -0.955067,-0.6659 -2.653454,-2.50613 -3.774182,-4.08943 -2.336367,-3.30063 -3.086859,-5.96978 -1.977759,-7.034 0.399556,-0.3834 0.817192,-1.01629 0.928095,-1.40645 0.255174,-0.89771 8.064183,-9.8381 11.940782,-13.67078 5.909505,-5.84253 11.069497,-8.52683 17.795011,-9.2572 7.866393,-0.8543 14.723496,2.22131 19.274088,8.64498 4.19535,5.92222 6.21901,12.88536 6.21901,21.39893 v 4.54653 l -1.92544,1.13064 c -1.37618,0.8081 -2.45755,1.00394 -3.79076,0.68655 -3.153601,-0.75076 -3.884959,-1.74247 -4.247523,-5.75938 -0.503304,-5.57647 -3.070554,-11.30358 -6.197234,-13.82497 -0.683348,-0.55107 -2.513434,-1.34552 -4.066847,-1.76548 -3.31972,-0.89742 -6.310688,-0.21739 -10.587453,2.40695 -3.401709,2.08741 -9.124496,9.48539 -10.687522,13.81596 -0.632194,1.75159 -1.315302,3.61467 -1.518029,4.14015 -0.578712,1.50017 -5.252075,1.52359 -7.384237,0.0371 z m 5.40498,-1.54348 c 0,-1.35166 -1.744991,-3.91903 -4.286359,-6.30648 -2.975255,-2.79506 -3.732827,-3.11897 -4.836566,-2.06801 -0.867495,0.82601 -0.856199,0.94255 0.28882,2.98175 1.289421,2.29635 2.318084,3.43017 4.645948,5.1209 1.834948,1.33276 4.188157,1.48549 4.188157,0.27184 z m 42.586555,-0.42677 c 0.66011,-0.46003 0.94612,-1.33662 0.94612,-2.89976 0,-2.52852 -1.34769,-10.81972 -2.0379,-12.53737 -0.40769,-1.01458 -0.58428,-0.92565 -1.75283,0.8828 -0.71472,1.10606 -2.04442,2.41636 -2.954917,2.91175 -1.242668,0.67613 -1.575264,1.17069 -1.333882,1.98347 0.176919,0.5955 0.691427,3.0096 1.143467,5.36465 0.494172,2.5744 1.114502,4.38639 1.555612,4.54395 1.44175,0.51501 3.50385,0.39898 4.43433,-0.24949 z m -37.582369,-9.33193 c 0.813661,-1.15933 0.905319,-1.78895 0.547377,-3.75988 -0.521403,-2.87097 -2.274215,-4.71168 -4.86021,-5.10391 -1.776937,-0.2695 -2.140777,-0.0217 -5.074454,3.46835 l -3.160289,3.75865 2.065128,1.37196 c 1.135832,0.75456 3.10823,2.72597 4.38312,4.3809 l 2.317973,3.00896 1.402005,-2.86627 c 0.771105,-1.57643 1.841808,-3.49288 2.37935,-4.25876 z m 3.516512,-4.5761 c 0.992374,-2.09093 9.550932,-7.08879 12.139164,-7.08879 0.635467,0 1.419513,-0.34394 1.742349,-0.76434 0.85973,-1.11954 0.715829,-5.44294 -0.252216,-7.57692 -0.731192,-1.61189 -1.1245,-1.84882 -3.057059,-1.84167 -4.148799,0.0144 -11.112775,3.56739 -15.450935,7.88082 -2.338493,2.32517 -2.338955,2.32141 0.515617,4.20177 0.807061,0.53162 1.907602,2.04067 2.445643,3.35343 0.989379,2.4139 1.438794,2.84419 1.917437,1.8357 z m 29.104877,-1.09443 c 1.19098,-1.30498 1.50492,-2.15047 1.50492,-4.05298 0,-2.04656 -0.34593,-2.82534 -2.326441,-5.23773 -2.909367,-3.54377 -7.24261,-6.25544 -10.749324,-6.72676 -2.610675,-0.35084 -2.674214,-0.3222 -2.144289,0.96721 0.300356,0.73085 0.54612,2.9972 0.54612,5.03636 v 3.70754 l 2.837786,1.43293 c 1.688884,0.85278 3.610333,2.46316 4.745998,3.97765 2.235984,2.98185 3.496843,3.18407 5.58523,0.89578 z m 19.04252,16.77646 c -0.36493,-7.35541 2.04098,-10.79218 8.81756,-12.59558 l 3.12145,-0.8307 -0.30491,-4.8315 c -0.16767,-2.65733 -0.62942,-7.8411 -1.02605,-11.51944 -0.39666,-3.67837 -0.99657,-9.76917 -1.33316,-13.53512 l -0.61199,-6.84717 h -3.5622 -3.56219 v -3.40413 c 0,-7.98985 -0.64695,-16.97817 -1.22202,-16.97817 -1.10714,0 -3.75122,2.05998 -5.40013,4.20719 -3.06113,3.98618 -3.9866,12.64929 -2.27113,21.25918 l 0.82261,4.12866 2.2011,0.46689 c 1.66239,0.35263 2.57669,1.02368 3.73582,2.74188 1.92126,2.84795 2.80432,6.81458 1.80639,8.11409 -0.53122,0.69175 -0.5733,1.30346 -0.18191,2.6441 0.7024,2.40579 0.65865,5.65391 -0.0719,5.33679 -0.31962,-0.13866 -0.91813,-1.73905 -1.33003,-3.55626 -0.78163,-3.44828 -1.52959,-4.0415 -3.15013,-2.49843 -0.78454,0.74705 -0.79066,1.01013 -0.0839,3.61826 0.47112,1.73881 0.58798,3.03933 0.30607,3.40643 -0.73642,0.95897 -1.34371,0.0392 -2.00508,-3.03681 -0.43246,-2.01134 -0.87816,-2.88266 -1.4746,-2.88266 -1.53463,0 -2.15426,-1.83205 -2.15426,-6.36946 0,-2.38181 0.25688,-4.73359 0.57082,-5.2262 0.442,-0.69351 0.3316,-1.89387 -0.48912,-5.31884 -0.76517,-3.19302 -1.06494,-6.10612 -1.07788,-10.47419 -0.0166,-5.48338 0.12035,-6.40952 1.45543,-9.87269 1.1417,-2.96139 2.0768,-4.35282 4.15396,-6.18118 1.47433,-1.29773 3.29552,-2.54142 4.04707,-2.76374 1.34671,-0.3984 1.36438,-0.46537 1.22283,-4.6339 -0.13477,-3.97127 -0.22595,-4.26718 -1.49091,-4.84432 -2.23819,-1.02113 -9.23893,0.42624 -12.47021,2.57818 -4.30841,2.86928 -7.620758,9.65718 -5.28262,10.82555 1.33599,0.66758 2.38481,5.59062 1.9108,8.96911 -0.23585,1.6812 -0.68351,3.05672 -0.99479,3.05672 -0.92335,0 -1.18601,0.66698 -1.54319,3.91867 -0.23186,2.11069 -0.56943,3.08774 -1.066839,3.08774 -0.710561,0 -0.739881,-0.56808 -0.328789,-6.36945 0.07043,-0.99414 -0.247964,-1.31668 -1.449757,-1.46868 -1.506345,-0.19042 -1.54746,-0.12446 -1.880056,3.02479 -0.353118,3.34334 -0.95699,4.46387 -1.808254,3.35535 -0.33243,-0.43286 -0.337015,-1.61928 -0.01479,-3.59206 0.426936,-2.60669 0.376374,-3.01967 -0.439284,-3.58812 -2.520404,-1.7565 1.032971,-12.06259 4.158985,-12.06259 0.392143,0 0.956658,-0.9615 1.254481,-2.13665 0.901273,-3.55612 3.713253,-7.21369 7.222863,-9.39488 2.83825,-1.76392 3.88117,-2.04743 8.60332,-2.33889 l 5.37355,-0.33166 -0.30694,-7.88643 c -0.23552,-6.0513 -1.09725,-15.46281 -1.51625,-16.55999 -0.0239,-0.0623 -2.13183,-0.56614 -4.68455,-1.11964 -7.7253,-1.67511 -13.18143,-3.8068 -18.171106,-7.09936 -8.738676,-5.76642 -16.583162,-16.36618 -20.702308,-27.9737 -1.56737,-4.41678 -3.675555,-12.68759 -3.675555,-14.41988 0,-0.65191 -0.296344,-1.18531 -0.658557,-1.18531 -2.048046,0 -6.486442,-4.73219 -7.997076,-8.5264 -1.261394,-3.1682 -2.569838,-8.893 -2.582353,-11.29853 -0.01109,-2.08114 0.138836,-2.34821 1.516494,-2.70703 2.428525,-0.63248 4.354521,-0.46496 4.576807,0.39811 0.11277,0.43789 0.44496,2.01637 0.738142,3.50772 0.763618,3.88425 3.404408,7.16179 5.767951,7.15871 2.10885,-0.002 4.587252,-1.7753 5.770613,-4.12715 0.454555,-0.90337 0.96176,-3.26071 1.127125,-5.23852 l 0.300633,-3.59601 2.586032,-0.75695 c 2.406525,-0.70439 2.622488,-0.66823 3.111207,0.52086 0.724887,1.76382 0.270703,13.07714 -0.607016,15.11995 -1.488043,3.4633 -2.894522,5.52674 -4.566158,6.69902 -0.96078,0.67377 -1.746877,1.46105 -1.746877,1.74945 0,0.28843 1.219373,3.77756 2.709746,7.75359 6.910364,18.43569 16.077602,28.45436 29.725536,32.48642 1.8326,0.54141 4.19457,0.98439 5.24884,0.98439 1.69358,0 1.95119,-0.20415 2.2116,-1.75162 0.51369,-3.05289 0.63635,-3.29998 1.78176,-3.58905 5.77139,-1.45658 63.64697,-2.29027 68.32373,-0.98418 2.10684,0.58838 2.46127,0.90993 2.59201,2.35175 0.21287,2.34729 2.31741,2.92123 9.2004,2.50904 6.6363,-0.39741 12.66354,-2.71044 18.08829,-6.94164 6.45738,-5.03662 9.33563,-9.3917 12.23391,-18.51088 l 1.16576,-3.66805 -1.51476,-2.06447 c -3.00256,-4.09224 -3.87109,-9.84229 -2.17651,-14.40955 l 0.89449,-2.41087 h -3.53036 c -4.05189,0 -6.56167,-1.23165 -8.65963,-4.24961 -1.44608,-2.08022 -2.47685,-5.89694 -2.44121,-9.0394 0.0301,-2.65775 1.3137,-6.42969 2.45975,-7.2284 0.81921,-0.57093 1.3356,-0.0946 3.7415,3.45193 l 2.79109,4.11427 h 2.87025 c 3.14145,0 3.07891,0.0823 3.66108,-4.81276 0.29013,-2.43933 0.17008,-2.77689 -2.15224,-6.050992 -1.35274,-1.907156 -2.46541,-3.819223 -2.47262,-4.249056 -0.0261,-1.552168 2.52285,-2.998411 5.32164,-3.019524 3.48941,-0.02624 6.15568,1.73048 8.11636,5.347919 1.22919,2.267853 1.46478,3.305063 1.45131,6.389773 -0.0129,3.00573 -0.2603,4.09942 -1.34511,5.95144 -0.73097,1.24798 -1.32903,2.45202 -1.32903,2.67564 0,0.92805 7.03017,11.07183 7.44306,10.73955 0.24735,-0.19909 0.33775,-0.74193 0.2009,-1.20638 -0.42513,-1.44263 0.81734,-2.11 3.25712,-1.74952 3.06702,0.45318 3.48444,1.52128 3.42883,8.7738 -0.0436,5.69042 -0.0309,5.75318 1.7397,8.54619 8.73176,13.774 10.05712,16.3259 10.06797,19.38541 0.007,1.97088 -0.30346,2.8169 -1.57757,4.29937 -3.00916,3.50119 -4.78558,2.27594 -11.20604,-7.72925 -2.36778,-3.68976 -4.64264,-7.3778 -5.05527,-8.19568 -0.743,-1.47277 -0.78055,-1.47826 -3.91285,-0.57228 -2.42702,0.70201 -3.20188,1.20084 -3.3314,2.14469 -0.0928,0.67647 -0.93425,3.37964 -1.86985,6.00703 -4.59927,12.91598 -13.53274,22.81421 -25.10856,27.82009 -3.88771,1.6812 -4.68151,1.79793 -12.22827,1.79793 h -8.07065 l 0.12072,7.96183 c 0.0664,4.37901 0.3415,13.44295 0.61141,20.14209 0.26989,6.69917 0.49072,16.0472 0.49072,20.77342 v 8.59318 l -2.26936,0.40504 c -1.24815,0.22268 -3.21164,0.40506 -4.36332,0.40506 -1.91533,0 -2.12066,0.1584 -2.40709,1.85662 -0.30592,1.81373 0.45655,27.1716 1.0071,33.49389 0.47216,5.4219 0.45341,5.3914 3.06348,4.98887 5.65754,-0.87255 10.66034,2.3703 11.79451,7.6453 1.11746,5.19732 1.65799,4.9458 -10.69309,4.97562 -8.69615,0.0217 -11.03185,-0.15046 -11.30725,-0.82984 -0.19091,-0.47095 -0.49116,-4.72573 -0.66719,-9.45506 -0.176,-4.72932 -0.52468,-12.61154 -0.77471,-17.51602 -0.25005,-4.90449 -0.46542,-12.46655 -0.47864,-16.80455 l -0.024,-7.88732 -8.92663,0.39882 c -4.90966,0.21931 -13.38386,0.58343 -18.83155,0.80902 l -9.90492,0.41019 0.0111,1.98272 c 0.0166,3.1554 1.35876,23.44173 2.19594,33.19309 0.42105,4.90449 0.89737,10.70867 1.05848,12.89816 l 0.29294,3.98093 H 130.63426 119.8064 l -0.0712,-1.43315 z m 19.62915,-3.18472 c -0.0111,-4.09281 -0.87658,-5.76882 -3.42787,-6.63667 -1.20446,-0.40971 -3.01933,-0.76799 -4.03305,-0.79618 l -1.84312,-0.0513 0.13125,2.70702 c 0.0996,2.05752 -0.0449,2.70703 -0.60254,2.70703 -0.47297,0 -0.78891,-0.74862 -0.88905,-2.10661 -0.17914,-2.42798 -1.11298,-3.13818 -2.8059,-2.13373 -1.06194,0.63007 -1.12699,0.87541 -0.61794,2.33032 0.43768,1.25088 0.43189,1.80458 -0.0251,2.39967 -0.58666,0.76396 -1.14251,0.18609 -1.69674,-1.76355 -0.39921,-1.40438 -2.2805,1.82973 -2.2805,3.9204 v 2.13059 h 9.04892 9.04892 l -0.007,-2.70703 z m 58.51659,-0.57624 c -0.39494,-2.5714 -1.02336,-3.52606 -3.3297,-5.05822 l -1.86952,-1.24198 -0.82174,2.24394 c -0.45195,1.23418 -1.11114,2.24395 -1.46485,2.24395 -0.76729,0 -0.80477,-0.63723 -0.16601,-2.82479 0.44522,-1.52494 0.38087,-1.63383 -0.9657,-1.63383 -1.10832,0 -1.61861,0.44291 -2.20156,1.91084 -1.07619,2.71008 -2.04009,2.44674 -1.74846,-0.47771 0.11942,-1.1973 -0.95635,-0.95209 -3.22081,0.73414 -1.39107,1.03589 -2.19324,1.30828 -2.53647,0.86131 -0.61392,-0.79941 0.0747,-1.8015 2.24,-3.25959 l 1.53423,-1.03314 -0.28606,-5.89663 c -0.15732,-3.24314 -0.52833,-6.11475 -0.82445,-6.38135 -0.29612,-0.26659 -1.30877,-0.4099 -2.25033,-0.31846 l -1.71199,0.16634 0.13274,7.00642 c 0.073,3.85353 0.25562,8.79783 0.40579,10.98732 l 0.27305,3.98093 h 9.56024 9.56027 z m -59.17776,-8.50825 c -0.15621,-0.52989 -0.4322,-2.84824 -0.61345,-5.15194 -0.28039,-3.56385 -0.50116,-4.29034 -1.48037,-4.87133 -0.83026,-0.4926 -1.49152,-0.4807 -2.37369,0.0428 -1.0404,0.61732 -1.21555,1.13136 -1.17406,3.4462 0.0841,4.69148 0.52935,5.80245 2.66112,6.63942 2.68744,1.05517 3.31582,1.033 2.98045,-0.10496 z m -1.48786,-18.27868 c -0.35415,-6.10915 -0.77988,-7.50965 -2.28283,-7.50965 -1.47024,0 -3.38703,1.40659 -3.38703,2.4855 0,0.55391 0.26869,3.23084 0.59711,5.94875 l 0.59711,4.94163 h 2.40785 2.40786 z m 45.01587,1.49697 c -0.16195,-1.27527 -0.2969,-4.26049 -0.29985,-6.63383 -0.006,-3.96208 -0.10113,-4.36257 -1.17571,-4.89459 -0.64369,-0.31869 -1.63417,-0.42146 -2.2011,-0.22846 -0.88271,0.30061 -1.03075,0.83006 -1.03075,3.68651 0,1.8345 0.13569,5.02562 0.30139,7.09135 l 0.30137,3.75588 2.19957,-0.22918 2.19956,-0.22918 z m -67.11312,-0.56708 c 0.20138,-0.26274 1.17177,-0.77288 2.15644,-1.13365 0.98468,-0.36074 1.85478,-1.09176 1.93356,-1.62443 0.22544,-1.52444 -1.95185,-5.20435 -3.46538,-5.85696 -2.21609,-0.9555 -3.27334,0.77888 -3.27334,5.36981 0,3.47559 0.0758,3.72295 1.14131,3.72295 0.62772,0 1.30605,-0.21498 1.50741,-0.47772 z m 21.27254,-10.75104 c 0.10907,-0.12229 -9.8e-4,-2.44671 -0.24458,-5.16558 l -0.44297,-4.94336 -2.6902,0.22388 c -1.47963,0.12302 -2.77347,0.32702 -2.87524,0.45323 -0.10168,0.12615 0.0882,2.51612 0.42205,5.31097 l 0.60704,5.08154 2.51275,-0.36921 c 1.38202,-0.20318 2.60202,-0.46917 2.71115,-0.59137 z m 45.53535,-7.2427 v -4.45861 h -2.44565 -2.44565 v 4.45861 4.45864 h 2.44565 2.44565 z m -32.03809,-5.7926 c 12.64404,-0.38826 23.09922,-0.84518 23.23373,-1.01535 0.13459,-0.1702 0.24456,-7.05859 0.24456,-15.30752 V 209.2409 l 1.38707,-1.3478 c 1.27931,-1.24311 1.93997,-1.33847 8.50368,-1.22742 l 7.11659,0.12037 -0.3218,-12.22239 c -0.1771,-6.72233 -0.45557,-15.13404 -0.61905,-18.69272 -0.35322,-7.68914 0.52431,-7.01246 -9.90786,-7.63996 l -7.04795,-0.42394 0.28996,10.64965 c 0.26569,9.75867 0.22105,10.6325 -0.5336,10.44484 -0.71433,-0.17766 -0.8577,-1.47097 -1.08104,-9.75201 -0.14161,-5.25095 -0.45106,-9.95042 -0.68767,-10.44323 -0.36103,-0.75199 -2.52133,-0.82457 -13.4382,-0.4514 -28.71573,0.98155 -35.83536,1.44665 -36.27341,2.36963 -0.70339,1.48204 -1.09335,7.5526 -0.6226,9.69219 l 0.44544,2.02453 14.57681,0.31847 14.57682,0.3185 1.13868,1.72484 c 1.3097,1.98393 1.84972,6.84438 1.61292,14.51728 -0.0812,2.62741 0.12774,7.0192 0.464,9.75952 0.33627,2.74034 0.61141,8.1276 0.61141,11.97171 0,10.32325 0.69154,9.8009 -13.71864,10.36206 -6.30939,0.24569 -12.73723,0.2514 -14.28412,0.012 l -2.8125,-0.43405 v 5.18326 5.18328 l 2.07881,0.005 c 1.14334,0.002 12.42392,-0.31322 25.06796,-0.70148 z m 34.8115,-39.69635 c -0.30288,-1.02787 0.95576,-1.91086 1.39739,-0.98033 0.33282,0.70127 -0.12128,1.88302 -0.72343,1.88302 -0.22437,0 -0.52765,-0.40622 -0.67396,-0.90269 z m -60.40757,-24.41592 c -0.60454,-1.53062 -0.19123,-2.70702 0.95107,-2.70702 1.19664,0 1.71444,1.62309 0.91697,2.87436 -0.79307,1.24438 -1.32944,1.19636 -1.86804,-0.16731 z m 60.17762,-0.92358 c -0.85012,-1.10702 -0.72154,-1.78344 0.33897,-1.78344 0.92911,0 1.70743,1.45409 1.15994,2.16703 -0.4376,0.56987 -0.84722,0.46503 -1.49891,-0.38359 z m -0.22011,63.4482 6.48099,-0.42659 v -11.3833 c 0,-6.26082 -0.17489,-11.38329 -0.38885,-11.38329 -0.21386,0 -0.79921,1.29581 -1.30075,2.87959 -1.01499,3.20506 -2.44705,4.14209 -4.48362,2.93377 -1.55339,-0.92166 -1.41093,-0.97503 -2.34316,0.87772 -0.75799,1.50645 -0.74466,1.69794 0.239,3.43046 1.39764,2.46172 0.91208,4.12412 -1.68224,5.75953 -2.46507,1.55395 -4.14647,1.68775 -4.53741,0.36106 -0.60117,-2.04007 -0.98533,-0.76891 -1.07455,3.55559 l -0.093,4.51102 1.35135,-0.34449 c 0.74323,-0.18946 4.26779,-0.53648 7.83231,-0.77107 z m -82.54834,-7.01523 c 0.0233,-4.16374 -2.342821,-7.50763 -4.227721,-5.97477 -1.257013,1.02226 -2.612616,4.17613 -2.612616,6.07843 0,1.65332 0.682035,2.03696 4.157598,2.33853 2.101699,0.18247 2.670939,-0.33583 2.682739,-2.44219 z m 79.72383,-3.89434 c 0.0261,-1.67419 -1.6969,-2.04343 -3.31395,-0.71019 -1.81548,1.49687 -1.79132,1.41719 -0.8154,2.68803 0.67381,0.87743 0.92081,0.86588 2.43363,-0.11387 0.92602,-0.59967 1.6891,-1.43849 1.69572,-1.86409 z m -55.80698,-1.73758 c 0.30095,-1.5564 0.5472,-2.98953 0.5472,-3.18472 0,-0.19523 -0.77039,-0.35491 -1.71196,-0.35491 h -1.71196 v 3.18474 c 0,2.93009 0.0932,3.18474 1.16477,3.18474 0.97002,0 1.25624,-0.47309 1.71195,-2.82985 z m 4.73635,1.07823 c 0.16213,-0.96337 0.37821,-2.1055 0.48024,-2.53805 0.17507,-0.74197 -1.17153,-2.07981 -2.09333,-2.07981 -0.48348,0 -1.5978,3.69628 -1.5978,5.30003 0,0.76213 0.41901,1.06945 1.45808,1.06945 1.19309,0 1.51163,-0.31835 1.75281,-1.75162 z m 11.16661,0.2015 c 0.67568,-3.50562 5.22998,-5.46039 9.29245,-3.98841 l 1.41447,0.51252 -0.25241,-5.76477 c -0.33886,-7.7391 -0.45679,-7.88795 -5.98271,-7.55222 -4.88463,0.29675 -6.63639,1.16499 -9.05659,4.48871 -1.68495,2.31397 -4.18038,8.62 -4.66323,11.78415 l -0.31589,2.07009 h 4.63258 c 4.49977,0 4.64114,-0.0445 4.93133,-1.55007 z m 9.32972,0.52401 c 0.7245,-0.94345 0.71747,-1.09566 -0.0873,-1.89057 -1.84635,-1.82367 -6.91879,-0.53862 -7.6485,1.93766 -0.4309,1.46222 6.60969,1.41937 7.73583,-0.0472 z m 26.07908,-2.59316 c 3.74826,-3.02434 7.44202,-10.18935 7.44202,-14.43574 v -2.32733 h -2.93477 -2.93478 v 1.94247 c 0,2.29563 -1.24407,5.68016 -2.5185,6.85165 -0.72134,0.66308 -0.90543,1.66676 -0.90543,4.93633 0,2.25724 0.11776,4.10404 0.26177,4.10404 0.14402,0 0.85935,-0.48212 1.58969,-1.07142 z m -44.89499,-4.93691 c 0,-1.83592 -6.97684,-7.93807 -9.13587,-7.9905 -0.40789,-0.01 -0.49528,1.05524 -0.29932,3.64847 0.15215,2.01433 0.33203,3.75008 0.39958,3.85724 0.0675,0.10712 1.71101,0.30431 3.65213,0.43818 1.94112,0.13385 3.65302,0.40449 3.80422,0.60139 0.54154,0.70518 1.57926,0.34064 1.57926,-0.55478 z m 55.76092,-4.10016 c 0,-0.57755 -0.40811,-1.38199 -0.90692,-1.78766 -0.78749,-0.6404 -1.01297,-0.44801 -1.71196,1.46076 -1.01594,2.77427 -1.00892,3.27179 0.051,3.60341 0.98103,0.30696 2.56794,-1.71782 2.56794,-3.27651 z m -54.29353,0.25824 c 0,-0.51316 -0.43762,-1.23799 -0.97248,-1.61074 -1.37956,-0.96145 -1.74826,-3.50261 -0.78575,-5.41554 0.75946,-1.50932 5.3786,-5.40609 6.40498,-5.40329 0.26902,6.2e-4 0.91382,1.15546 1.43287,2.5661 0.68126,1.8514 1.15743,2.45434 1.71196,2.1678 0.42252,-0.21835 1.44586,-0.54541 2.2741,-0.72686 1.40656,-0.30816 1.50335,-0.50383 1.4674,-2.96653 l -0.0385,-2.63659 2.8125,-0.5548 2.81251,-0.5548 v -2.52857 c 0,-2.6873 -1.0848,-3.22017 -1.37372,-0.67475 -0.22984,2.02506 -1.49401,2.32521 -1.85718,0.44095 -0.41564,-2.15648 -2.47462,-3.53253 -3.96373,-2.64901 -1.40752,0.83512 -1.84758,0.31845 -1.15798,-1.35948 0.74042,-1.80157 -0.27407,-4.70886 -1.47056,-4.21434 -1.24002,0.5125 -1.74648,-1.00339 -0.67584,-2.02285 0.49527,-0.47158 0.96773,-1.4313 1.04993,-2.13268 0.12127,-1.03509 -0.12627,-1.27527 -1.31488,-1.27527 -1.28678,0 -1.46433,0.22195 -1.46433,1.83122 0,1.48074 -0.25742,1.9041 -1.3451,2.21203 -1.91988,0.54353 -2.52512,1.21357 -2.67811,2.9649 -0.0967,1.1076 0.13957,1.61095 0.84387,1.79743 0.53804,0.14251 1.11969,0.55123 1.29254,0.90834 0.41277,0.85285 -0.87807,4.91563 -2.06923,6.51265 -0.91505,1.22681 -0.97986,1.22939 -2.58622,0.10279 -1.41507,-0.99236 -1.79825,-1.03511 -2.71464,-0.30292 -0.85848,0.68593 -1.01118,1.24735 -0.78137,2.87282 0.3672,2.59725 -1.05917,4.03071 -4.01079,4.03071 -1.53371,0 -2.09227,0.25506 -2.09227,0.95541 0,0.52548 0.24367,0.95543 0.5415,0.95543 1.07979,0 6.59098,3.84012 8.20686,5.71844 1.83221,2.12981 2.50166,2.39524 2.50166,0.9919 z m 43.51217,-6.27933 c 0.0372,-2.10516 -1.62541,-0.9147 -1.99323,1.4272 -0.53541,3.40908 0.0529,4.42605 1.09174,1.88718 0.48454,-1.18416 0.89022,-2.67564 0.90149,-3.31438 z m 13.37579,1.62687 c -0.27211,-2.64176 -0.31483,-2.69485 -2.16969,-2.69485 -2.61942,0 -2.53651,1.73113 0.18668,3.89732 1.14334,0.9095 2.1197,1.61734 2.16969,1.57299 0.0499,-0.0443 -0.034,-1.2933 -0.18668,-2.77546 z m -52.80654,-0.36948 c 1.25108,-1.36105 1.32543,-1.65061 0.73833,-2.87484 -0.83615,-1.74348 -1.26103,-1.7125 -3.48337,0.25397 -1.98589,1.75725 -2.30224,3.20434 -0.97648,4.46671 0.92575,0.8815 1.45656,0.61823 3.72152,-1.84584 z m 13.52063,-4.07696 c -0.0348,-2.48133 -0.67113,-3.34396 -2.46716,-3.34396 -2.15128,0 -2.46474,0.39683 -1.88668,2.38855 0.33659,1.1597 0.79222,1.43313 2.38822,1.43313 1.08476,0 1.9693,-0.21498 1.96562,-0.47772 z m -25.04472,-1.9715 c 1.2975,-1.07212 0.15843,-2.36812 -1.86081,-2.11735 -1.79262,0.22269 -2.45862,1.13962 -1.62045,2.23109 0.45223,0.58889 2.72058,0.51475 3.48126,-0.11362 z m 2.2338,-6.49236 c 3.41685,-3.04879 5.08926,-8.74739 3.63089,-12.37193 -0.58359,-1.45039 -1.06798,-1.78392 -2.74469,-1.88982 l -2.03603,-0.12856 v 2.45919 c 0,3.12186 -1.82054,5.76764 -3.7624,5.4679 -1.62279,-0.25051 -2.13619,-1.79273 -0.59677,-1.79273 1.32212,0 2.89785,-1.71161 2.87622,-3.12422 -0.0299,-1.95379 -1.26177,-3.24526 -3.09544,-3.24526 -1.23518,0 -1.78032,0.28491 -1.78032,0.93044 0,1.77417 1.03635,14.04214 1.26001,14.91555 0.33605,1.31235 4.27136,0.54365 6.24853,-1.22053 z m 5.60018,-0.10303 c 0.79246,-1.03194 0.74549,-3.05734 -0.071,-3.05734 -0.36184,0 -1.01916,0.51984 -1.46072,1.15522 -0.61929,0.8911 -0.67016,1.32794 -0.22254,1.91083 0.72871,0.94894 1.0199,0.94749 1.7542,-0.01 z m 15.95458,-4.71784 c 0.4588,-0.22918 0.77371,-1.13659 0.77371,-2.22931 0,-1.67388 -0.15363,-1.84271 -1.67646,-1.84271 -1.82242,0 -3.70399,-2.30854 -3.70399,-4.54451 0,-1.53876 -1.29007,-1.53573 -1.92309,0.005 -1.17436,2.85744 1.84228,8.9986 4.42026,8.9986 0.73472,0 1.68404,-0.17405 2.10957,-0.38662 z m -0.26618,-6.84159 c 0.41699,-0.65427 0.32212,-1.12409 -0.39843,-1.97324 -1.49225,-1.75857 -2.82451,0.21089 -1.39866,2.06763 0.75466,0.98271 1.12295,0.96338 1.79709,-0.0944 z m -13.91863,-0.1649 c 1.36298,-0.68107 0.8879,-2.16116 -0.69368,-2.16116 -1.58603,0 -1.61367,0.0363 -1.1705,1.54028 0.32273,1.09513 0.67819,1.21352 1.86418,0.62088 z m -17.32413,-8.4848 v -3.13891 l -2.81252,-0.39331 c -4.96608,-0.69448 -9.24094,-2.30572 -14.97848,-5.64549 l -3.361615,-1.9568 -1.407404,2.05119 c -0.774081,1.12816 -1.407422,2.30991 -1.407422,2.62614 0,2.1585 11.916011,7.72313 19.076111,8.9083 5.28045,0.87404 4.89133,1.06903 4.89133,-2.45112 z m 87.2115,1.92331 c 1.29101,-0.27651 2.58039,-0.8063 2.86529,-1.1773 0.69348,-0.90305 -0.35696,-5.07134 -1.46098,-5.79744 -0.44925,-0.29546 -2.46762,-0.3152 -4.48529,-0.0438 -3.46619,0.46612 -4.53017,0.42305 -9.31819,-0.37723 l -1.98123,-0.33113 0.14697,3.67509 0.14697,3.67512 3.17937,0.36777 c 4.84523,0.56049 8.31873,0.56335 10.90707,0.01 z m 12.81578,-5.60751 c 2.55525,-1.76021 4.86936,-3.73614 6.04729,-5.16351 0.38127,-0.46205 1.21262,-1.28322 1.84744,-1.82485 1.34823,-1.15038 1.49062,-3.12018 0.34469,-4.76907 -1.12596,-1.62015 -1.78304,-1.47694 -4.44753,0.96939 -3.60419,3.30908 -8.08895,6.18561 -11.37342,7.29487 -0.94159,0.31801 -1.66705,0.83454 -1.61214,1.14785 0.0549,0.3133 0.36339,1.57285 0.68556,2.79896 0.32217,1.22612 0.65538,2.58705 0.74046,3.02427 0.17747,0.91164 3.6573,-0.64645 7.76765,-3.47791 z M 95.308525,166.41757 c -0.0018,-0.35032 -1.24252,-1.92676 -2.75528,-3.50321 -1.512778,-1.57644 -3.758486,-4.51202 -4.990449,-6.52348 -1.444914,-2.35914 -2.605222,-3.65909 -3.269085,-3.66243 -1.079946,-0.005 -3.617616,2.64544 -3.617616,3.77909 0,1.20502 5.150231,8.58514 8.346551,11.96037 l 3.148032,3.32422 1.571308,-2.36881 c 0.864223,-1.30284 1.569164,-2.65543 1.566539,-3.00575 z m 135.900245,-5.09813 c 2.49323,-4.4143 4.29932,-8.66892 5.23174,-12.32454 0.47146,-1.84834 0.77972,-3.4598 0.68507,-3.58102 -0.0947,-0.12133 -0.95167,-0.40997 -1.90444,-0.64168 l -1.73233,-0.42126 -2.28074,5.93775 c -1.25439,3.26574 -2.83172,6.75644 -3.50516,7.75708 l -1.22444,1.81938 1.32445,2.16152 c 0.72844,1.18885 1.43449,2.15037 1.569,2.13672 0.13458,-0.0144 0.96109,-1.29342 1.83685,-2.84395 z m 30.1663,-1.31683 c 1.07828,-1.40414 0.95623,-3.8666 -0.30855,-6.22564 -0.88226,-1.6456 -4.64297,-7.84825 -9.25323,-15.26163 -0.77606,-1.24793 -0.83775,-1.21242 -3.00014,1.72636 l -2.20779,3.00048 1.98382,3.3074 c 2.65874,4.43262 7.62344,11.95806 8.8002,13.33928 1.17944,1.38438 2.97069,1.43551 3.98569,0.11363 z M 80.966874,152.40475 c 0.725701,-0.87582 1.617488,-1.59237 1.981735,-1.59237 1.004649,0 0.806007,-1.14727 -0.77972,-4.50322 -0.793086,-1.67846 -2.120848,-5.00637 -2.950556,-7.39533 -2.261995,-6.51286 -2.087479,-6.26339 -4.216775,-6.02802 -1.048851,0.11603 -1.983454,0.30754 -2.076923,0.42576 -0.64044,0.81034 5.447333,20.68555 6.335996,20.68555 0.212747,0 0.980561,-0.71657 1.706243,-1.59237 z M 244.29766,141.82991 c 4.52656,-3.10963 6.25702,-7.13136 6.0107,-13.96919 l -0.14844,-4.11856 -1.58967,-0.19957 c -1.4157,-0.17766 -1.58968,-0.0241 -1.58968,1.41497 0,2.76247 -2.22055,8.36887 -4.02428,10.1604 -3.48397,3.4604 -8.62219,0.87538 -8.68484,-4.36938 -0.0148,-1.222 -0.62447,-2.82927 -1.69178,-4.45862 l -1.66896,-2.54777 -0.76942,2.36809 c -1.85072,5.69595 -0.35824,11.95221 3.63274,15.22795 2.86233,2.34934 7.50381,2.56622 10.52356,0.4917 z m -1.4101,-9.85281 c 0.9061,-1.25105 1.64744,-2.85628 1.64744,-3.56717 0,-0.72305 -2.04735,-4.33745 -4.64676,-8.20345 -2.5557,-3.80104 -4.64675,-7.02808 -4.64675,-7.17127 0,-0.14324 0.76826,-1.5188 1.70723,-3.05698 1.4138,-2.31602 1.70801,-3.32391 1.71195,-5.86464 0.009,-5.413925 -3.35586,-9.352457 -7.98868,-9.352457 -1.22133,0 -2.36343,0.300968 -2.53804,0.668836 -0.17452,0.367893 0.69285,2.075358 1.92766,3.794404 2.46149,3.426777 2.44585,3.363677 1.7842,7.197447 -0.25349,1.46882 -0.58784,3.45881 -0.74302,4.42221 -0.28061,1.74228 -0.30393,1.7516 -4.38133,1.7516 h -4.0992 l -2.44621,-3.4854 c -2.19073,-3.12138 -2.51512,-3.37709 -3.10614,-2.44845 -1.06161,1.66803 -0.75399,7.14226 0.56089,9.98114 1.95768,4.22674 7.7766,6.25481 11.24497,3.91922 1.64999,-1.11109 0.95669,-1.81712 7.08847,7.2187 2.41517,3.55901 4.59026,6.47093 4.83355,6.47093 0.24329,0 1.18367,-1.02359 2.08977,-2.27467 z M 76.391084,130.13721 c 4.70725,-1.86007 7.376214,-6.26158 7.999018,-13.19161 0.445292,-4.9548 0.01664,-6.89775 -1.522244,-6.89775 -0.931552,0 -1.214142,0.33296 -1.216231,1.43312 -0.0092,5.21017 -3.064268,10.61697 -6.722223,11.89963 -4.524323,1.58643 -7.685,-1.36923 -9.898411,-9.25631 -0.463946,-1.6532 -0.757222,-1.92398 -1.80208,-1.66389 -1.182585,0.29438 -1.231981,0.46756 -0.942829,3.30596 0.599898,5.88884 3.957701,12.38336 7.436537,14.38346 1.900281,1.09251 3.881165,1.08878 6.668463,-0.012 z M 216.40994,293.10967 c -6.25114,-1.91488 -8.46699,-3.37976 -11.41751,-7.54802 -2.57148,-3.6328 -3.62453,-6.42786 -5.14635,-13.6598 -1.40703,-6.68641 -1.23444,-7.98465 1.15218,-8.66726 1.96755,-0.56272 3.88907,0.051 5.54577,1.77117 1.06466,1.10545 1.34897,1.90665 1.29314,3.64401 -0.2158,6.7147 -0.17951,6.99092 1.273,9.68208 2.78296,5.15629 7.66128,7.9353 11.6445,6.63347 l 1.24712,-0.40761 -0.30328,-14.52457 -0.30326,-14.52457 9.2465,-0.76504 c 5.08558,-0.42076 10.29201,-0.7607 11.56988,-0.75543 l 2.32337,0.01 v -3.18471 c 0,-2.29754 0.1898,-3.18474 0.68135,-3.18474 0.85348,0 1.27517,1.38634 1.27517,4.19224 v 2.17721 h 2.87365 c 1.58049,0 3.56147,-0.1791 4.40218,-0.39808 1.42929,-0.37225 1.52852,-0.57697 1.52852,-3.15366 0,-1.51555 0.31164,-4.31355 0.69252,-6.21777 1.37272,-6.86291 3.49633,-10.83968 7.18423,-13.45346 2.24881,-1.59384 3.12812,-1.84803 6.29523,-1.81977 4.40525,0.0392 7.35272,1.5128 9.80885,4.90369 1.42437,1.96647 1.98354,2.30454 3.81163,2.30454 1.78424,0 2.42037,0.36201 3.80541,2.16563 1.64736,2.1452 2.14229,4.37992 1.14735,5.18066 -0.34062,0.27412 -0.24213,0.9588 0.29009,2.01652 1.17477,2.33475 0.15474,3.47285 -1.40383,1.56625 -1.36254,-1.66688 -3.01964,-1.26425 -2.56759,0.62384 0.15622,0.65232 0.41971,1.7593 0.58559,2.45993 0.41354,1.74659 -1.0651,1.71274 -1.78581,-0.0409 -0.42586,-1.03622 -0.83723,-1.22985 -1.94162,-0.914 -1.13736,0.3253 -1.54969,0.10568 -2.18943,-1.16564 -1.23108,-2.44663 -1.45802,-5.75835 -0.55597,-8.11299 0.43492,-1.13528 0.79077,-2.27276 0.79077,-2.5277 0,-1.14561 -3.28162,-4.47049 -5.29334,-5.36311 -4.57449,-2.02971 -9.28302,-0.92069 -12.30493,2.89824 -2.60994,3.2983 -3.95094,7.52027 -4.27978,13.47448 l -0.27263,4.93634 h 3.98294 3.98295 v 3.18474 c 0,2.98572 0.0777,3.18471 1.24232,3.18471 1.94321,0 5.11474,2.42821 6.0126,4.6034 0.44866,1.08692 1.77151,3.29042 2.93967,4.89666 2.13917,2.94138 4.63891,8.75683 4.17984,9.72408 -0.53031,1.11738 -1.19869,0.40027 -2.33406,-2.50427 -0.65046,-1.66404 -1.71855,-3.67613 -2.37354,-4.47138 l -1.1909,-1.44584 -0.56947,2.47518 c -0.94993,4.12871 -0.73545,6.84204 0.65332,8.26457 0.67257,0.68892 1.22283,1.56957 1.22283,1.95706 0,1.22759 -1.74497,0.76138 -2.84205,-0.7593 -1.20984,-1.67701 -1.41284,-4.05315 -0.86303,-10.1017 0.35384,-3.89263 0.30354,-4.29774 -0.61278,-4.93634 -1.38742,-0.96691 -3.62876,-0.86867 -4.75984,0.20872 -0.88166,0.83971 -0.95012,1.76946 -0.95849,13.01605 -0.006,6.66144 -0.11499,12.24124 -0.24456,12.39952 -0.1296,0.15817 -7.93938,0.0313 -17.35514,-0.28236 -16.01199,-0.53325 -20.41319,-0.48197 -27.14678,0.31626 -1.47962,0.1755 -3.13044,0.18416 -3.6685,0.0193 z m 46.44931,-2.3283 c 0.10759,-0.4379 0.28359,-8.50406 0.39101,-17.92479 l 0.19532,-17.12858 -13.0015,0.40698 c -19.94396,0.62433 -26.93718,1.12542 -26.97373,1.93275 -0.14956,3.30386 0.12571,22.1757 0.3472,23.79638 0.15547,1.13856 0.53345,2.06645 0.83978,2.06203 0.30635,-0.005 1.82123,-0.84306 3.36644,-1.86359 3.45389,-2.28109 7.24991,-6.864 8.49003,-10.24997 1.02626,-2.80199 3.08306,-4.03716 5.6217,-3.376 2.46128,0.641 2.73195,1.78014 1.31615,5.53925 -1.70608,4.52985 -5.61934,9.94939 -9.57657,13.26276 l -3.28033,2.7466 15.2454,0.31847 c 8.38497,0.17525 15.41012,0.53344 15.61144,0.79618 0.55113,0.71925 1.188,0.57517 1.40766,-0.31847 z m -11.96556,-4.02341 c 0,-0.54886 0.55028,-1.93737 1.22284,-3.08561 1.59975,-2.73124 1.54283,-3.55983 -0.24457,-3.55983 -0.84046,0 -1.47329,-0.34016 -1.4812,-0.79618 -0.0242,-1.39942 3.16959,-8.74706 3.80457,-8.75265 0.90991,-0.007 0.73449,1.96927 -0.36685,4.13478 -1.2677,2.4926 -1.23259,3.50095 0.1222,3.51296 2.5507,0.0217 2.61064,0.91949 0.35752,5.34997 -2.0482,4.02748 -3.4146,5.30663 -3.4146,3.19656 z m 5.7454,-19.93318 c -0.38624,-1.33247 -0.94026,-1.9983 -1.77091,-2.1283 -1.82622,-0.28577 -1.91986,-1.78151 -0.11147,-1.78151 1.19083,0 1.56189,-0.32724 1.80574,-1.59237 0.38203,-1.98212 1.5462,-2.08766 1.7565,-0.15913 0.10039,0.92101 0.5496,1.50587 1.25685,1.63667 1.52541,0.28211 1.42016,2.02576 -0.1222,2.02576 -0.97037,0 -1.22283,0.321 -1.22283,1.55479 0,2.36706 -0.9568,2.63411 -1.59157,0.44419 z m -13.57149,-2.9253 c 0,-0.79539 0.66553,-0.98451 3.46468,-0.98451 2.5534,0 3.41154,0.20944 3.26265,0.79618 -0.12793,0.50408 -1.39899,0.86528 -3.46468,0.98451 -2.67929,0.1548 -3.26265,0.012 -3.26265,-0.79618 z m -16.25857,25.1258 c 1.48507,-0.6797 2.81633,-1.3871 2.95834,-1.57203 0.14198,-0.18489 -0.0305,-1.03853 -0.38319,-1.89688 -0.60604,-1.4746 -0.71707,-1.50965 -2.01453,-0.63595 -1.82539,1.2292 -7.08089,2.8143 -9.37002,2.82605 -1.65522,0.01 -1.83425,0.17381 -1.83425,1.69335 v 1.68393 l 3.97177,-0.43133 c 2.18448,-0.23736 5.18682,-0.98742 6.67188,-1.66714 z m -12.60017,-0.64823 c 0,-1.41013 -0.29503,-2.07425 -1.10054,-2.47739 -0.60529,-0.30292 -2.14989,-1.75771 -3.43243,-3.23286 -1.41548,-1.62802 -2.62123,-2.53748 -3.06817,-2.31414 -3.07399,1.53606 1.33656,7.37486 7.47885,9.90071 0.0673,0.0277 0.1222,-0.8167 0.1222,-1.87632 z m 20.86877,-5.10324 c 1.43838,-1.41417 3.52374,-4.06547 4.63411,-5.89176 l 2.01888,-3.32052 -1.65487,-0.31847 c -1.53262,-0.29494 -1.93498,0.0462 -5.44567,4.61784 -3.5611,4.6373 -4.24878,6.03845 -3.46468,7.05951 0.61342,0.79878 1.29907,0.42258 3.91223,-2.1466 z m -28.98985,-7.30144 c -0.19081,-1.05098 -0.34423,-2.69698 -0.34092,-3.65781 0.006,-1.46627 -0.27739,-1.8495 -1.75786,-2.38499 -0.97011,-0.35092 -1.92893,-0.63963 -2.1307,-0.64158 -0.63495,-0.007 -0.41673,2.08284 0.67314,6.44411 l 1.05414,4.21833 1.42456,-1.03362 c 1.24385,-0.90247 1.38056,-1.27602 1.07764,-2.94444 z m 36.00156,-5.16987 c 0,-0.13433 -0.71535,-0.23977 -1.58969,-0.23447 -1.08079,0.007 -1.37662,0.1856 -0.9241,0.55886 0.60702,0.50085 2.51379,0.25475 2.51379,-0.32444 z m -36.48448,-3.33578 c 0.35963,-0.75773 -1.90854,-2.00398 -3.64728,-2.00398 -2.14039,0 -1.75039,1.1097 0.63443,1.80516 2.80937,0.81925 2.72115,0.81345 3.01285,0.19885 z m 63.36544,-2.83271 c 1.45767,0.49638 1.23825,-0.99544 -0.25516,-1.73481 -0.69007,-0.34165 -1.79061,-0.62117 -2.44566,-0.62117 -0.93517,0 -1.19098,0.33245 -1.19098,1.54788 0,1.41201 0.12701,1.50051 1.44615,1.00784 0.79538,-0.29707 1.89592,-0.38693 2.44565,-0.19981 z m 14.93973,-20.41072 c 1.07611,-1.0545 2.16272,-2.14912 2.41474,-2.43247 0.67399,-0.75781 -1.65315,-3.71676 -2.92316,-3.71676 -1.93184,0 -3.64917,2.35983 -3.64917,5.0144 0,2.51025 0.77774,4.11988 1.66797,3.45205 0.2932,-0.22003 1.41354,-1.2627 2.48962,-2.31722 z M 5.3499162,287.43741 c 0,-1.32761 -0.247317,-2.253 -0.6114154,-2.28786 -0.3362757,-0.0322 -1.2717471,-0.10375 -2.0788087,-0.15912 -2.21483487,-0.15191 -1.93790194,-1.9606 0.337921,-2.20699 1.634995,-0.17695 1.8196046,-0.38735 1.9565367,-2.22931 0.1913388,-2.57397 1.5517303,-2.79051 1.7733506,-0.28227 0.134769,1.52499 0.3683318,1.7516 1.8053882,1.7516 1.8047044,0 2.7169194,1.09125 1.6487124,1.9723 -0.3707353,0.3058 -1.2793822,0.56038 -2.0191888,0.56575 -1.2419647,0.01 -1.3451028,0.20511 -1.3451028,2.55753 0,1.84006 -0.2038174,2.54777 -0.7337058,2.54777 -0.5124184,0 -0.7336874,-0.67232 -0.7336874,-2.2293 z M 290.83515,286.05183 c -0.17692,-0.23062 -0.32184,-1.35806 -0.32184,-2.50565 0,-1.99938 -0.0869,-2.09471 -2.07881,-2.28239 -2.57797,-0.24288 -2.54384,-1.28348 0.0666,-2.03075 1.72526,-0.49389 1.97754,-0.79874 2.10826,-2.54778 0.19533,-2.61328 1.08466,-2.55543 1.28004,0.0833 0.14439,1.95109 0.26394,2.07006 2.07881,2.07006 1.3855,0 1.92554,0.26796 1.92554,0.95543 0,0.82633 -1.53476,1.34384 -3.05708,1.03083 -0.20177,-0.0414 -0.36685,0.89267 -0.36685,2.07591 0,2.09279 -0.98672,3.99482 -1.63468,3.15104 z M 55.241266,247.76506 c -0.961501,-0.68776 -3.115367,-1.36824 -4.913416,-1.55226 -1.760798,-0.18031 -3.895936,-0.79534 -4.744741,-1.36692 -0.848805,-0.57158 -2.489678,-1.04032 -3.646382,-1.04162 -2.596181,-0.002 -4.904523,-1.74591 -5.959567,-4.49993 -1.016776,-2.65413 -0.995054,-3.14107 0.14013,-3.14107 0.593317,0 1.115108,0.68995 1.4402,1.90427 0.323187,1.20729 1.144058,2.29814 2.242787,2.98043 1.954447,1.21364 2.732152,0.758 1.849072,-1.08331 -0.817285,-1.70419 -0.743966,-6.66893 0.131072,-8.87234 0.952756,-2.39922 3.034301,-4.48324 4.47792,-4.48324 1.967315,0 3.113388,2.12562 3.113388,5.7744 0,3.64544 -0.478069,5.15832 -2.51813,7.96879 l -1.42247,1.95966 1.216915,0.72201 c 0.669298,0.39712 2.271275,0.90235 3.559975,1.12277 l 2.343059,0.40075 0.03975,-3.4009 c 0.0427,-3.65708 0.840782,-6.19451 2.822424,-8.97419 1.442121,-2.02292 3.845799,-2.34982 5.588758,-0.76007 2.327345,2.12276 0.848268,8.49301 -2.929574,12.61734 l -2.097462,2.28988 2.831982,0.012 c 4.627368,0.0193 7.861345,-2.86651 8.255707,-7.36966 0.0989,-1.12908 0.449119,-1.85359 0.89602,-1.85359 1.034986,0 0.880954,4.0432 -0.238813,6.26863 -2.258094,4.48775 -9.0123,6.85724 -12.478601,4.37773 z m 1.788583,-5.58372 c 1.953598,-1.94038 3.102721,-4.61538 3.102721,-7.22274 0,-5.4719 -4.948225,-1.48329 -5.70626,4.59964 -0.28564,2.29204 0.0055,4.24841 0.631141,4.24841 0.184868,0 1.072403,-0.73138 1.972398,-1.62531 z m -11.477927,-3.31103 c 2.443758,-3.41192 3.110486,-7.36133 1.579331,-9.35523 -0.704644,-0.91756 -0.895798,-0.91222 -2.160317,0.0604 -1.868243,1.43712 -2.790108,5.5336 -1.971825,8.76232 0.31838,1.25623 0.740731,2.28405 0.938558,2.28405 0.197828,0 0.924232,-0.78824 1.614253,-1.75162 z m 174.648788,1.96527 c -0.3363,-0.17598 -0.61142,-1.15582 -0.61142,-2.1776 0,-1.59576 -0.1871,-1.85775 -1.32674,-1.85775 -0.85922,0 -1.70231,0.61337 -2.39253,1.74056 l -1.06579,1.74057 -2.86563,-1.32681 c -3.49479,-1.61811 -4.8263,-3.85859 -3.46083,-5.8234 1.07121,-1.54136 1.04645,-2.63179 -0.10408,-4.58115 -0.84098,-1.42499 -1.04249,-1.49081 -2.29262,-0.7491 -1.16967,0.69402 -1.45407,0.66455 -1.94005,-0.20101 -0.63868,-1.13738 -1.3612,-7.10496 -0.96207,-7.94594 0.14197,-0.29914 1.03095,-0.73268 1.97548,-0.96343 1.22782,-0.29995 1.73828,-0.77444 1.79075,-1.66456 0.0403,-0.68477 0.0954,-1.54117 0.1222,-1.90311 0.027,-0.36193 -0.50135,-1.02397 -1.17392,-1.47119 -1.52821,-1.01619 -1.50727,-3.36004 0.0547,-6.11102 1.40116,-2.46788 2.61572,-2.95995 4.1258,-1.6715 1.11681,0.9529 1.33324,0.93191 3.20344,-0.31053 1.4823,-0.98473 1.945,-1.63479 1.77306,-2.49096 -0.42485,-2.11561 0.44723,-2.81676 3.85487,-3.09931 3.66711,-0.30407 4.59692,0.45547 4.59692,3.75507 0,1.30835 0.3522,1.90179 1.49428,2.51781 1.35159,0.72904 1.56439,0.6756 2.22883,-0.55967 1.08436,-2.01601 2.19451,-1.68226 4.46187,1.34136 2.40309,3.2046 3.35717,5.93979 2.52654,7.24311 -0.30775,0.48287 -0.81873,0.87794 -1.13552,0.87794 -1.24577,0 -1.61222,1.28252 -1.09183,3.82129 0.4591,2.23983 0.6818,2.50483 2.24911,2.67631 1.73144,0.18946 1.7391,0.20366 1.63716,3.0566 -0.15196,4.25512 -0.5197,5.60796 -1.82743,6.72374 -1.03186,0.88042 -1.34639,0.89422 -2.49664,0.1093 -1.21063,-0.82599 -1.41767,-0.77529 -2.58437,0.63272 -0.96644,1.16632 -1.27262,2.16434 -1.28635,4.19294 -0.0166,2.47412 -0.13903,2.71295 -1.72998,3.37839 -2.33166,0.97525 -5.00706,1.48736 -5.74729,1.10016 z m 5.47011,-3.42039 c 0.82312,-1.07051 -0.15455,-1.44885 -2.24144,-0.86742 -1.12716,0.31401 -2.15139,0.97194 -2.2761,1.46208 -0.1821,0.71576 0.1952,0.80336 1.91714,0.4451 1.17913,-0.24531 2.34931,-0.71321 2.6004,-1.03976 z m -11.12171,-1.67413 c -0.14253,-0.29326 -1.06334,-1.09077 -2.0461,-1.77227 -1.52718,-1.05902 -1.85176,-1.10529 -2.23364,-0.31847 -0.70237,1.44716 -0.28691,2.12666 1.77759,2.90732 1.84106,0.69618 3.04646,0.30279 2.50215,-0.81658 z m 11.23679,-3.11974 c 4.58864,-4.55758 5.79283,-10.69119 3.36675,-17.14847 -1.32152,-3.51736 -4.10016,-6.99792 -6.77388,-8.48509 -0.75247,-0.41854 -2.51334,-0.75625 -3.91303,-0.75049 -3.07427,0.012 -5.69944,1.77973 -7.87888,5.30345 -1.44766,2.3406 -1.5139,2.70522 -1.5139,8.33475 0,5.39203 0.11369,6.10073 1.35183,8.42729 1.39483,2.62096 4.29433,5.14195 6.92637,6.02213 2.60785,0.87211 6.66693,0.0522 8.43474,-1.70357 z m -7.78095,-7.79406 c -1.41785,-0.2246 -2.81784,-2.23364 -2.81784,-4.04356 0,-0.5958 0.56984,-1.96518 1.2663,-3.043 3.26117,-5.0469 8.71837,0.0274 5.59334,5.20098 -1.06368,1.76086 -2.01834,2.20624 -4.0418,1.88558 z m 2.85374,-3.63542 c 0.64699,-1.28579 0.68501,-1.78041 0.19596,-2.54778 -1.35331,-2.12341 -4.32688,0.15985 -3.67759,2.82381 0.4597,1.88602 2.47412,1.72634 3.48163,-0.27603 z m 12.8982,7.36995 c 0.27849,-0.67762 0.50634,-2.11074 0.50634,-3.18474 0,-1.51473 -0.21503,-1.9527 -0.95864,-1.9527 -1.30678,0 -2.5359,4.88101 -1.45369,5.77282 1.02321,0.84317 1.34199,0.73691 1.90599,-0.63538 z m -26.88501,-5.45591 c 0,-1.8047 -0.18633,-2.22933 -0.97827,-2.22933 -0.79192,0 -0.97825,0.42463 -0.97825,2.22933 0,1.80468 0.18633,2.22931 0.97825,2.22931 0.79194,0 0.97827,-0.42463 0.97827,-2.22931 z m 25.15024,-9.62235 c 0.42555,-0.21257 0.77371,-0.70215 0.77371,-1.08781 0,-0.76487 -3.41248,-5.53199 -3.95999,-5.53199 -0.94167,0 -0.74763,2.16191 0.39869,4.44184 1.34508,2.6753 1.51954,2.8116 2.78759,2.17796 z m -23.20598,-2.93656 c 0.93059,-1.49654 0.8144,-3.0463 -0.22839,-3.0463 -0.65632,0 -2.205,2.66844 -2.205,3.79929 0,1.17282 1.53033,0.69927 2.43339,-0.75299 z m 12.72967,-7.50491 c 0,-1.02544 -0.32609,-1.2739 -1.67195,-1.2739 -3.37015,0 -4.47546,1.66285 -1.38513,2.0838 1.00885,0.13746 2.10939,0.29803 2.44567,0.35692 0.33627,0.059 0.61141,-0.46619 0.61141,-1.16682 z m 32.38494,21.29562 c -1.52082,-1.38712 -3.03837,-5.51632 -3.37084,-9.17186 -0.2228,-2.4498 -0.52158,-3.21931 -1.46796,-3.78083 -1.42621,-0.84618 -0.99332,-2.20894 0.57747,-1.81794 0.82147,0.20439 1.31906,-0.19259 1.93038,-1.54013 0.45298,-0.99862 1.69003,-2.39125 2.74898,-3.09473 1.05892,-0.7035 1.92534,-1.65323 1.92534,-2.11053 0,-1.12763 1.90095,-3.36835 3.54621,-4.18004 1.04134,-0.51375 1.3451,-1.08104 1.3451,-2.51222 0,-1.84839 1.02757,-3.63888 1.63468,-2.84833 0.17692,0.23038 0.32184,1.34263 0.32184,2.47139 0,1.86262 0.16749,2.09315 1.81151,2.49479 2.45098,0.59876 5.295,2.55866 6.22683,4.29107 1.62155,3.01468 0.50362,6.87319 -1.99139,6.87319 -1.65524,0 -3.79725,-2.30962 -5.8037,-6.25782 -1.51376,-2.97868 -2.45154,-3.26842 -4.33489,-1.33929 -1.6655,1.70597 -1.62518,2.30413 0.1903,2.82337 2.52202,0.72132 4.39048,3.25882 4.39048,5.96254 0,7.15019 -5.59373,6.80558 -7.37375,-0.45426 -0.77364,-3.1553 -1.05098,-3.43003 -2.30652,-2.28488 -1.02592,0.93574 -1.52631,3.46118 -0.68578,3.46118 0.86391,0 3.66243,3.6036 4.54194,5.84858 2.28373,5.82929 -0.22033,10.48305 -3.85623,7.16675 z m 2.70819,-3.81925 c -0.15917,-1.83948 -0.67619,-3.49721 -1.40871,-4.51712 -1.23925,-1.72542 -2.82522,-3.03765 -3.15395,-2.60957 -0.47502,0.61855 1.43713,7.13244 2.49999,8.51653 1.79486,2.33723 2.35275,1.96132 2.06267,-1.38984 z m 4.9178,-7.41261 c 0.85443,-1.11266 0.71825,-3.35405 -0.26902,-4.42783 -1.33214,-1.44887 -3.47592,-2.47765 -3.78886,-1.81828 -0.58814,1.23922 1.97586,7.01044 3.11455,7.01044 0.196,0 0.62049,-0.34396 0.94333,-0.76433 z m 8.54102,-6.40131 c 0.45838,-1.5689 -0.60273,-3.62702 -2.53017,-4.90747 -3.61521,-2.40172 -4.04749,-1.09758 -1.00356,3.02754 2.00887,2.72243 3.11553,3.31118 3.53373,1.87993 z M 72.605404,223.58254 c -1.151194,-0.35176 -4.961518,-4.42624 -9.878482,-10.56334 -3.432915,-4.28478 -3.558459,-4.37566 -5.086582,-3.68198 -2.414659,1.09614 -5.866319,0.86629 -7.594155,-0.50569 -1.494144,-1.18644 -5.076672,-8.00306 -5.076672,-9.65961 0,-0.96311 2.405951,-4.41016 3.078189,-4.41016 0.247224,0 1.283245,0.85988 2.30224,1.91084 1.019014,1.05096 2.220732,1.91084 2.670499,1.91084 3.067263,0 3.803409,-4.84757 1.242556,-8.18232 -0.807062,-1.05095 -1.467393,-2.23506 -1.467393,-2.63131 0,-0.39628 0.650589,-1.62699 1.445745,-2.73495 1.40733,-1.96086 1.495105,-1.99202 3.30164,-1.17176 2.728824,1.23905 4.626776,3.06606 6.267761,6.03342 1.271932,2.30001 1.457429,3.17987 1.45558,6.90437 -0.0018,3.90008 0.100199,4.32912 1.183103,4.97167 2.754188,1.63411 11.632717,10.21177 12.175417,11.7628 1.951508,5.57749 -1.545352,11.41422 -6.019446,10.04718 z m 3.71214,-3.26086 c 1.458871,-1.53833 1.55417,-5.29092 0.176549,-6.94879 -0.524583,-0.63128 -3.483975,-3.34394 -6.576399,-6.02814 l -5.622607,-4.88034 -1.576558,2.04043 c -0.867089,1.12224 -1.583528,2.35167 -1.592069,2.73211 -0.01664,0.69982 4.581669,6.60458 9.007881,11.56954 2.684863,3.01165 4.372028,3.42509 6.183295,1.51519 z m -3.630613,-3.05448 c -0.673309,-0.87681 -0.290465,-2.12317 0.652179,-2.12317 0.652179,0 0.978268,0.42463 0.978268,1.2739 0,1.22751 -0.957119,1.72608 -1.630447,0.84927 z M 57.442346,206.93608 c 1.076082,-0.64546 2.54318,-1.89279 3.260174,-2.77183 1.432767,-1.75653 3.343105,-6.22302 3.343105,-7.81638 0,-3.02345 -3.605545,-8.78832 -6.191595,-9.8997 -2.806821,-1.20628 -3.587446,0.94024 -1.331903,3.66231 1.150972,1.38902 1.258362,1.89938 1.058889,5.03181 -0.122013,1.91729 -0.423367,3.74575 -0.669464,4.06326 -0.246115,0.3175 -1.473032,0.93316 -2.726514,1.36815 -2.241936,0.77798 -2.308655,0.75699 -4.099088,-1.29011 -1.642408,-1.87781 -1.893922,-1.98476 -2.576733,-1.09561 -0.887535,1.15575 -0.432278,2.88962 1.726412,6.57507 2.097795,3.58152 4.706825,4.27236 8.206717,2.17303 z m 223.119574,11.50177 c -2.19864,-3.16363 0.6343,-8.06429 3.76558,-6.51402 2.78083,1.37679 3.65783,4.87858 1.67478,6.6873 -1.50109,1.36914 -4.43335,1.27573 -5.44036,-0.17333 z m 4.28248,-1.78217 c 0.66774,-2.26599 -1.9018,-3.76578 -3.13546,-1.83012 -0.4858,0.76227 -0.4858,1.1486 0,1.91084 0.80911,1.26957 2.7523,1.21952 3.13546,-0.0806 z M 82.1756,195.13064 c -0.835162,-1.31042 0.695142,-1.76406 5.113978,-1.51596 2.64288,0.14829 3.413689,0.4074 3.413689,1.14708 0,1.40705 -7.654977,1.73821 -8.527667,0.36888 z m 155.72776,-6.58886 c -2.17019,-1.96248 -2.94294,-7.96164 -1.27826,-9.92344 1.20348,-1.41827 2.67618,-1.32862 3.75851,0.2287 0.93005,1.33825 1.68086,1.27835 4.26872,-0.3405 0.73711,-0.4611 2.00274,-1.02787 2.8125,-1.25948 1.16151,-0.33219 1.47233,-0.20438 1.47233,0.60492 0,0.56431 -0.32615,1.18899 -0.72474,1.38818 -0.53819,0.26893 -0.60116,0.66289 -0.24458,1.5305 0.72923,1.77432 0.581,2.52599 -0.49808,2.52599 -0.5524,0 -0.97826,-0.42463 -0.97826,-0.97541 0,-1.51656 -1.23748,-1.77422 -3.07316,-0.63988 -1.37563,0.85004 -1.63332,1.31336 -1.44479,2.59764 0.45844,3.12287 -2.22402,5.93218 -4.07019,4.2627 z m 2.14771,-2.48449 c 0.49829,-1.15946 -0.009,-4.23546 -0.94089,-5.69641 -0.43529,-0.68299 -0.7367,-0.72632 -1.24337,-0.17887 -0.87389,0.94446 -0.84409,2.12259 0.12053,4.76996 0.87809,2.40962 1.38613,2.68173 2.06364,1.10522 z m 35.20786,0.26493 c -0.13736,-1.85617 -0.33016,-2.09123 -1.86523,-2.27474 -3.1628,-0.37807 -3.08534,-2.62828 0.0913,-2.65185 1.12318,-0.007 1.33637,-0.31052 1.46739,-2.07983 0.2065,-2.78897 1.56515,-2.81673 1.77185,-0.0361 0.13699,1.84196 0.32154,2.05232 1.95654,2.22933 2.35156,0.25455 2.33147,1.41261 -0.0288,1.66702 -1.78348,0.19211 -1.83425,0.2671 -1.83425,2.70703 0,3.18609 -1.32759,3.56021 -1.55868,0.43924 z M 22.962699,168.65118 c -1.381577,-1.11369 0.187863,-1.83252 4.300613,-1.96974 2.474446,-0.0826 4.273438,0.14227 4.606256,0.57567 0.730378,0.95107 0.04917,1.19773 -4.508775,1.6324 -2.017673,0.19235 -3.996819,0.0852 -4.398094,-0.23833 z m 29.34378,-5.65514 v -3.19654 l -2.323371,-0.19403 c -1.672875,-0.13987 -2.32339,-0.46164 -2.32339,-1.14956 0,-0.68631 0.647188,-1.00972 2.297638,-1.14819 l 2.297619,-0.19283 0.148079,-2.99198 c 0.1063,-2.14922 0.354689,-2.99196 0.88173,-2.99196 0.543477,0 0.733706,0.7431 0.733706,2.86627 v 2.86625 l 2.335369,0.31847 c 3.065563,0.41806 2.990691,1.45659 -0.153256,2.12702 l -2.507296,0.53467 0.162684,2.95647 c 0.13255,2.41015 0.0037,2.99678 -0.693331,3.17449 -0.72376,0.1844 -0.855978,-0.27579 -0.855978,-2.97853 z m 90.000111,-0.0667 c -4.16983,-0.26586 -11.27836,-0.52131 -15.79671,-0.56767 -10.3885,-0.10665 -10.31394,-0.0441 -10.75021,-9.02853 -0.16084,-3.31322 -0.1344,-11.46992 0.0588,-18.126 0.39963,-13.765 0.96984,-16.32515 4.51645,-20.27831 2.55974,-2.85315 4.59486,-3.54245 12.54582,-4.24918 3.70456,-0.3293 9.37687,-0.89113 12.60514,-1.24853 3.22826,-0.35739 9.39132,-0.94106 13.69566,-1.29703 4.30437,-0.35596 9.09174,-0.81571 10.63861,-1.02166 l 2.81251,-0.37447 v -5.03303 c 0,-3.72753 -0.16638,-5.033015 -0.64147,-5.033015 -1.20028,0 -2.78246,-2.549415 -2.78246,-4.483437 0,-2.772794 1.52561,-4.433822 4.07236,-4.433822 1.60458,0 2.38397,0.371672 3.22553,1.538181 1.29848,1.79986 1.06347,3.609205 -0.7536,5.802115 -1.01432,1.224116 -1.18323,2.067269 -1.2879,6.429258 l -0.12054,5.02037 6.82529,0.17815 c 7.41289,0.19331 7.90682,0.41348 9.40727,4.1919 2.00442,5.04743 2.32601,8.51684 2.34042,25.24801 0.0129,16.0642 -0.16897,18.37606 -1.79744,22.72885 -0.73434,1.96281 -2.37388,2.66597 -7.97119,3.41861 -6.38958,0.85916 -31.18367,1.23514 -40.84244,0.61934 z m 36.95734,-2.54366 c 4.31969,-0.3143 8.44606,-0.92274 9.16967,-1.35206 1.20602,-0.71557 2.28551,-3.60991 2.29422,-6.15123 0.004,-0.98028 0.28455,-0.98911 -5.62228,0.17694 -3.27635,0.64673 -11.35107,1.13504 -24.45654,1.47898 -22.37148,0.58715 -32.34107,0.25138 -32.98571,-1.1109 -0.80312,-1.69726 -1.447,-8.08373 -1.77296,-17.58581 -0.35493,-10.34591 0.0111,-12.83299 2.3771,-16.13216 2.7173,-3.78971 2.2785,-3.72376 38.68529,-5.81533 12.07574,-0.69374 22.03872,-1.36925 22.14001,-1.50115 0.10131,-0.13192 -0.2993,-1.04007 -0.89014,-2.01823 l -1.07429,-1.77843 -8.34833,0.40065 c -14.4341,0.69275 -48.5204,3.84465 -52.61001,4.86476 -2.99145,0.74621 -5.57665,3.07786 -7.05434,6.3625 -0.74958,1.66618 -1.02487,4.12135 -1.38514,12.35292 -0.51957,11.87101 -0.2651,25.63252 0.49221,26.61869 1.00036,1.30267 47.13238,2.20199 61.04124,1.18996 z m 3.64054,-9.20857 c 9.32873,-1.33002 8.81143,-0.48821 8.78091,-14.28894 -0.0166,-7.32489 -0.28059,-12.27049 -0.85598,-16.01234 l -0.83255,-5.41403 -9.53803,0.19692 c -9.69731,0.20029 -22.37265,0.86592 -38.59774,2.02717 -9.94017,0.71142 -11.10296,1.16057 -13.12621,5.07016 -0.94492,1.82591 -1.1011,2.95715 -1.09446,7.92738 0.009,6.81999 0.82946,20.59026 1.28367,21.54728 0.50763,1.06957 45.2081,0.19717 53.98039,-1.05362 z m -28.6274,-3.57743 c -0.94882,-1.99914 4.34984,-5.07312 9.54364,-5.5367 5.69107,-0.50795 11.91947,2.40009 11.09956,5.18239 -0.27527,0.93412 -0.52399,0.87096 -2.17596,-0.55263 -3.93631,-3.39214 -10.99323,-3.41393 -15.61763,-0.0481 -2.56407,1.86618 -2.43741,1.82372 -2.84961,0.95519 z M 142.34736,133.0241 c -0.38113,-0.31414 -0.69294,-1.48146 -0.69294,-2.59407 0,-2.25184 0.75982,-3.1604 2.65517,-3.17497 1.38958,-0.01 2.88831,1.7267 2.88831,3.34825 0,2.16691 -3.21307,3.77048 -4.85054,2.42079 z m 36.74191,-3.99534 c -0.32285,-0.4204 -0.58697,-1.71635 -0.58697,-2.87993 0,-1.6291 0.27656,-2.27967 1.2028,-2.82922 2.55725,-1.51728 4.90642,2.88565 2.91987,5.47255 -0.91227,1.18796 -2.71263,1.30842 -3.5357,0.23664 z m -4.55609,-35.482967 c 1.13851,-0.938941 0.27351,-3.880297 -1.14114,-3.880297 -1.11378,0 -2.71585,1.454621 -2.71585,2.465903 0,1.660017 2.46365,2.56345 3.85699,1.414394 z"
       id="path828"
       inkscape:connector-curvature="0" />
  </g>
</svg>
